G04 Layer: BottomSolderMaskLayer*
G04 EasyEDA v6.4.7, 2020-10-10T14:28:28+07:00*
G04 52f6a2ab2d5a4f67a95d22fe1a878f29,10*
G04 Gerber Generator version 0.2*
G04 Scale: 100 percent, Rotated: No, Reflected: No *
G04 Dimensions in millimeters *
G04 leading zeros omitted , absolute positions ,3 integer and 3 decimal *
%FSLAX33Y33*%
%MOMM*%
G90*
D02*

%ADD32C,2.203196*%
%ADD33C,1.778203*%
%ADD34R,1.778000X1.778000*%
%ADD35C,1.778000*%
%ADD36C,1.803197*%
%ADD41C,2.003196*%
%ADD44C,1.903197*%

%LPD*%
G54D32*
G01X14275Y63721D02*
G01X14275Y61121D01*
G01X8076Y61121D02*
G01X8076Y63721D01*
G01X12576Y57720D02*
G01X9976Y57720D01*
G54D33*
G01X14097Y17526D03*
G01X40767Y49276D03*
G01X46990Y49149D03*
G36*
G01X18669Y18415D02*
G01X18669Y20193D01*
G01X20447Y20193D01*
G01X20447Y18415D01*
G01X18669Y18415D01*
G37*
G54D35*
G01X22098Y19304D03*
G01X24638Y19304D03*
G01X27178Y19304D03*
G01X29718Y19304D03*
G01X32258Y19304D03*
G01X34798Y19304D03*
G01X37338Y19304D03*
G36*
G01X18669Y20955D02*
G01X18669Y22733D01*
G01X20447Y22733D01*
G01X20447Y20955D01*
G01X18669Y20955D01*
G37*
G01X22098Y21844D03*
G01X24638Y21844D03*
G01X27178Y21844D03*
G01X29718Y21844D03*
G01X32258Y21844D03*
G01X34798Y21844D03*
G01X37338Y21844D03*
G36*
G01X36449Y23495D02*
G01X36449Y25273D01*
G01X38227Y25273D01*
G01X38227Y23495D01*
G01X36449Y23495D01*
G37*
G01X34798Y24384D03*
G01X32258Y24384D03*
G01X29718Y24384D03*
G01X27178Y24384D03*
G01X24638Y24384D03*
G01X22098Y24384D03*
G01X19558Y24384D03*
G36*
G01X67056Y23495D02*
G01X67056Y25273D01*
G01X68834Y25273D01*
G01X68834Y23495D01*
G01X67056Y23495D01*
G37*
G01X65405Y24384D03*
G01X62865Y24384D03*
G01X60325Y24384D03*
G01X57785Y24384D03*
G01X55245Y24384D03*
G01X52705Y24384D03*
G01X50165Y24384D03*
G36*
G01X36576Y52324D02*
G01X36576Y54102D01*
G01X38354Y54102D01*
G01X38354Y52324D01*
G01X36576Y52324D01*
G37*
G01X34925Y53213D03*
G01X32385Y53213D03*
G01X29845Y53213D03*
G01X27305Y53213D03*
G01X24765Y53213D03*
G01X22225Y53213D03*
G01X19685Y53213D03*
G36*
G01X43180Y52451D02*
G01X43180Y54229D01*
G01X44958Y54229D01*
G01X44958Y52451D01*
G01X43180Y52451D01*
G37*
G36*
G01X67056Y20955D02*
G01X67056Y22733D01*
G01X68834Y22733D01*
G01X68834Y20955D01*
G01X67056Y20955D01*
G37*
G01X65405Y21844D03*
G01X62865Y21844D03*
G01X60325Y21844D03*
G01X57785Y21844D03*
G01X55245Y21844D03*
G01X52705Y21844D03*
G01X50165Y21844D03*
G54D33*
G01X19558Y14605D03*
G54D35*
G01X19558Y12065D03*
G01X19558Y9525D03*
G01X19558Y6985D03*
G54D34*
G01X19558Y4445D03*
G36*
G01X44577Y26797D02*
G01X44577Y28575D01*
G01X46355Y28575D01*
G01X46355Y26797D01*
G01X44577Y26797D01*
G37*
G54D35*
G01X45466Y25146D03*
G01X42926Y27686D03*
G01X42926Y25146D03*
G54D36*
G01X30315Y40132D03*
G01X35216Y40132D03*
G36*
G01X49276Y57404D02*
G01X49276Y59182D01*
G01X51054Y59182D01*
G01X51054Y57404D01*
G01X49276Y57404D01*
G37*
G54D35*
G01X52705Y58293D03*
G01X55245Y58293D03*
G01X57785Y58293D03*
G01X60325Y58293D03*
G01X62865Y58293D03*
G01X65405Y58293D03*
G01X67945Y58293D03*
G36*
G01X49276Y54864D02*
G01X49276Y56642D01*
G01X51054Y56642D01*
G01X51054Y54864D01*
G01X49276Y54864D01*
G37*
G01X52705Y55753D03*
G01X55245Y55753D03*
G01X57785Y55753D03*
G01X60325Y55753D03*
G01X62865Y55753D03*
G01X65405Y55753D03*
G01X67945Y55753D03*
G36*
G01X18796Y57404D02*
G01X18796Y59182D01*
G01X20574Y59182D01*
G01X20574Y57404D01*
G01X18796Y57404D01*
G37*
G01X22225Y58293D03*
G01X24765Y58293D03*
G01X27305Y58293D03*
G01X29845Y58293D03*
G01X32385Y58293D03*
G01X34925Y58293D03*
G01X37465Y58293D03*
G36*
G01X67056Y52324D02*
G01X67056Y54102D01*
G01X68834Y54102D01*
G01X68834Y52324D01*
G01X67056Y52324D01*
G37*
G01X65405Y53213D03*
G01X62865Y53213D03*
G01X60325Y53213D03*
G01X57785Y53213D03*
G01X55245Y53213D03*
G01X52705Y53213D03*
G01X50165Y53213D03*
G36*
G01X67056Y18415D02*
G01X67056Y20193D01*
G01X68834Y20193D01*
G01X68834Y18415D01*
G01X67056Y18415D01*
G37*
G01X65405Y19304D03*
G01X62865Y19304D03*
G01X60325Y19304D03*
G01X57785Y19304D03*
G01X55245Y19304D03*
G01X52705Y19304D03*
G01X50165Y19304D03*
G36*
G01X18796Y54864D02*
G01X18796Y56642D01*
G01X20574Y56642D01*
G01X20574Y54864D01*
G01X18796Y54864D01*
G37*
G01X22225Y55753D03*
G01X24765Y55753D03*
G01X27305Y55753D03*
G01X29845Y55753D03*
G01X32385Y55753D03*
G01X34925Y55753D03*
G01X37465Y55753D03*
G01X32385Y70993D03*
G01X29845Y70993D03*
G01X27305Y70993D03*
G01X24765Y70993D03*
G01X22225Y70993D03*
G36*
G01X18796Y70104D02*
G01X18796Y71882D01*
G01X20574Y71882D01*
G01X20574Y70104D01*
G01X18796Y70104D01*
G37*
G54D41*
G01X22225Y46482D03*
G01X27305Y46482D03*
G01X24765Y46482D03*
G01X37465Y46482D03*
G01X47625Y46482D03*
G01X50165Y46482D03*
G01X52705Y46482D03*
G01X55245Y46482D03*
G01X57785Y46482D03*
G01X60325Y46482D03*
G01X62865Y46482D03*
G01X65405Y46482D03*
G36*
G01X66944Y45481D02*
G01X66944Y47482D01*
G01X68945Y47482D01*
G01X68945Y45481D01*
G01X66944Y45481D01*
G37*
G01X45085Y46482D03*
G01X40005Y46482D03*
G01X42545Y46482D03*
G01X34925Y46482D03*
G01X29845Y46482D03*
G01X32385Y46482D03*
G01X19685Y46482D03*
G01X65405Y31242D03*
G01X67945Y31242D03*
G01X62865Y31242D03*
G01X60325Y31242D03*
G01X29845Y31242D03*
G01X32385Y31242D03*
G01X34925Y31242D03*
G01X37465Y31242D03*
G01X27305Y31242D03*
G01X24765Y31242D03*
G01X22225Y31242D03*
G01X19685Y31242D03*
G01X47625Y31242D03*
G01X45085Y31242D03*
G01X42545Y31242D03*
G01X40005Y31242D03*
G01X50165Y31242D03*
G01X52705Y31242D03*
G01X55245Y31242D03*
G01X57785Y31242D03*
G36*
G01X64389Y64071D02*
G01X64389Y65976D01*
G01X66167Y65976D01*
G01X66167Y64071D01*
G01X64389Y64071D01*
G37*
G54D44*
G01X65278Y67564D03*
G36*
G01X28892Y67564D02*
G01X28892Y69342D01*
G01X30797Y69342D01*
G01X30797Y67564D01*
G01X28892Y67564D01*
G37*
G01X32385Y68453D03*
G54D35*
G01X27178Y14605D03*
G01X27178Y12065D03*
G01X27178Y9525D03*
G01X27178Y6985D03*
G54D34*
G01X27178Y4445D03*
G54D35*
G01X22098Y14605D03*
G01X22098Y12065D03*
G01X22098Y9525D03*
G01X22098Y6985D03*
G54D34*
G01X22098Y4445D03*
G54D35*
G01X47117Y7747D03*
G01X44577Y7747D03*
G01X42037Y7747D03*
G01X39497Y7747D03*
G36*
G01X36068Y6858D02*
G01X36068Y8636D01*
G01X37846Y8636D01*
G01X37846Y6858D01*
G01X36068Y6858D01*
G37*
G01X47117Y5207D03*
G01X44577Y5207D03*
G01X42037Y5207D03*
G01X39497Y5207D03*
G36*
G01X36068Y4318D02*
G01X36068Y6096D01*
G01X37846Y6096D01*
G01X37846Y4318D01*
G01X36068Y4318D01*
G37*
G01X24638Y14605D03*
G01X24638Y12065D03*
G01X24638Y9525D03*
G01X24638Y6985D03*
G54D34*
G01X24638Y4445D03*
G54D35*
G01X62738Y7620D03*
G01X62738Y5080D03*
G01X60198Y7620D03*
G01X60198Y5080D03*
G01X57658Y7620D03*
G36*
G01X56769Y4191D02*
G01X56769Y5969D01*
G01X58547Y5969D01*
G01X58547Y4191D01*
G01X56769Y4191D01*
G37*
G36*
G01X49674Y64528D02*
G01X49674Y66532D01*
G01X51676Y66532D01*
G01X51676Y64528D01*
G01X49674Y64528D01*
G37*
G54D41*
G01X50673Y68073D03*
G01X53213Y65533D03*
G01X53213Y68073D03*
G01X55753Y65533D03*
G01X55753Y68073D03*
G01X58293Y65533D03*
G01X58293Y68073D03*
M00*
M02*
