G04 Layer: TopPasteMaskLayer*
G04 EasyEDA v6.4.7, 2020-10-10T14:28:28+07:00*
G04 52f6a2ab2d5a4f67a95d22fe1a878f29,10*
G04 Gerber Generator version 0.2*
G04 Scale: 100 percent, Rotated: No, Reflected: No *
G04 Dimensions in millimeters *
G04 leading zeros omitted , absolute positions ,3 integer and 3 decimal *
%FSLAX33Y33*%
%MOMM*%
G90*
D02*

%ADD13R,0.999998X1.550010*%
%ADD14R,1.550010X0.999998*%
%ADD15R,1.399540X1.300480*%

%LPD*%
G36*
G01X2743Y14236D02*
G01X3835Y14236D01*
G01X3835Y12077D01*
G01X2743Y12077D01*
G01X2743Y14236D01*
G37*
G36*
G01X5054Y14236D02*
G01X6146Y14236D01*
G01X6146Y12077D01*
G01X5054Y12077D01*
G01X5054Y14236D01*
G37*
G36*
G01X7340Y14236D02*
G01X8432Y14236D01*
G01X8432Y12077D01*
G01X7340Y12077D01*
G01X7340Y14236D01*
G37*
G36*
G01X3848Y20434D02*
G01X7353Y20434D01*
G01X7353Y18275D01*
G01X3848Y18275D01*
G01X3848Y20434D01*
G37*
G36*
G01X2564Y54369D02*
G01X3564Y54369D01*
G01X3564Y52818D01*
G01X2564Y52818D01*
G01X2564Y54369D01*
G37*
G36*
G01X4563Y54369D02*
G01X5563Y54369D01*
G01X5563Y52818D01*
G01X4563Y52818D01*
G01X4563Y54369D01*
G37*
G54D14*
G01X43942Y62627D03*
G01X43942Y64626D03*
G36*
G01X2564Y50178D02*
G01X3564Y50178D01*
G01X3564Y48627D01*
G01X2564Y48627D01*
G01X2564Y50178D01*
G37*
G36*
G01X4563Y50178D02*
G01X5563Y50178D01*
G01X5563Y48627D01*
G01X4563Y48627D01*
G01X4563Y50178D01*
G37*
G36*
G01X2691Y32017D02*
G01X3691Y32017D01*
G01X3691Y30466D01*
G01X2691Y30466D01*
G01X2691Y32017D01*
G37*
G36*
G01X4690Y32017D02*
G01X5690Y32017D01*
G01X5690Y30466D01*
G01X4690Y30466D01*
G01X4690Y32017D01*
G37*
G36*
G01X2691Y36208D02*
G01X3691Y36208D01*
G01X3691Y34657D01*
G01X2691Y34657D01*
G01X2691Y36208D01*
G37*
G36*
G01X4690Y36208D02*
G01X5690Y36208D01*
G01X5690Y34657D01*
G01X4690Y34657D01*
G01X4690Y36208D01*
G37*
G36*
G01X2691Y23635D02*
G01X3691Y23635D01*
G01X3691Y22084D01*
G01X2691Y22084D01*
G01X2691Y23635D01*
G37*
G36*
G01X4690Y23635D02*
G01X5690Y23635D01*
G01X5690Y22084D01*
G01X4690Y22084D01*
G01X4690Y23635D01*
G37*
G01X25527Y40115D03*
G01X25527Y38116D03*
G36*
G01X2691Y27826D02*
G01X3691Y27826D01*
G01X3691Y26275D01*
G01X2691Y26275D01*
G01X2691Y27826D01*
G37*
G36*
G01X4690Y27826D02*
G01X5690Y27826D01*
G01X5690Y26275D01*
G01X4690Y26275D01*
G01X4690Y27826D01*
G37*
G01X10033Y2683D03*
G01X10033Y4682D03*
G01X14097Y2683D03*
G01X14097Y4682D03*
G01X45085Y42147D03*
G01X45085Y40148D03*
G01X40005Y40115D03*
G01X40005Y38116D03*
G36*
G01X2616Y40652D02*
G01X3708Y40652D01*
G01X3708Y38493D01*
G01X2616Y38493D01*
G01X2616Y40652D01*
G37*
G36*
G01X4927Y40652D02*
G01X6019Y40652D01*
G01X6019Y38493D01*
G01X4927Y38493D01*
G01X4927Y40652D01*
G37*
G36*
G01X7213Y40652D02*
G01X8305Y40652D01*
G01X8305Y38493D01*
G01X7213Y38493D01*
G01X7213Y40652D01*
G37*
G36*
G01X3721Y46850D02*
G01X7226Y46850D01*
G01X7226Y44691D01*
G01X3721Y44691D01*
G01X3721Y46850D01*
G37*
G54D15*
G01X14986Y39658D03*
G01X14986Y37557D03*
G01X12192Y13173D03*
G01X12192Y15274D03*
G01X12192Y21751D03*
G01X12192Y19650D03*
G54D13*
G01X12970Y49276D03*
G01X14969Y49276D03*
G54D14*
G01X43942Y57547D03*
G01X43942Y59546D03*
G54D13*
G01X8144Y25400D03*
G01X10143Y25400D03*
G54D14*
G01X12192Y8017D03*
G01X12192Y10016D03*
M00*
M02*
