G04 Layer: TopSilkLayer*
G04 EasyEDA v6.4.7, 2020-10-10T14:28:28+07:00*
G04 52f6a2ab2d5a4f67a95d22fe1a878f29,10*
G04 Gerber Generator version 0.2*
G04 Scale: 100 percent, Rotated: No, Reflected: No *
G04 Dimensions in millimeters *
G04 leading zeros omitted , absolute positions ,3 integer and 3 decimal *
%FSLAX33Y33*%
%MOMM*%
G90*
D02*

%ADD10C,0.254000*%
%ADD26C,0.202999*%
%ADD27C,0.203200*%
%ADD28C,0.200660*%
%ADD29C,0.200000*%
%ADD30C,0.151994*%
%ADD31C,0.152400*%

%LPD*%
G54D26*
G01X38608Y20574D02*
G01X20193Y20574D01*
G54D27*
G01X38608Y20574D02*
G01X38608Y18034D01*
G01X18288Y18034D01*
G01X18288Y20574D01*
G01X20193Y20574D01*
G54D26*
G01X38608Y23114D02*
G01X20193Y23114D01*
G54D27*
G01X38608Y23114D02*
G01X38608Y20574D01*
G01X18288Y20574D01*
G01X18288Y23114D01*
G01X20193Y23114D01*
G54D26*
G01X18288Y23114D02*
G01X36703Y23114D01*
G54D27*
G01X18288Y23114D02*
G01X18288Y25654D01*
G01X38608Y25654D01*
G01X38608Y23114D01*
G01X36703Y23114D01*
G54D26*
G01X48895Y23114D02*
G01X67310Y23114D01*
G54D27*
G01X48895Y23114D02*
G01X48895Y25654D01*
G01X69215Y25654D01*
G01X69215Y23114D01*
G01X67310Y23114D01*
G54D26*
G01X18415Y51943D02*
G01X36830Y51943D01*
G54D27*
G01X18415Y51943D02*
G01X18415Y54483D01*
G01X38735Y54483D01*
G01X38735Y51943D01*
G01X36830Y51943D01*
G01X45339Y52070D02*
G01X42799Y52070D01*
G01X42799Y54610D01*
G01X45339Y54610D01*
G01X45339Y52705D01*
G54D26*
G01X45339Y52070D02*
G01X45339Y52705D01*
G01X48895Y20574D02*
G01X67310Y20574D01*
G54D27*
G01X48895Y20574D02*
G01X48895Y23114D01*
G01X69215Y23114D01*
G01X69215Y20574D01*
G01X67310Y20574D01*
G01X18288Y5080D02*
G01X18288Y3175D01*
G01X20828Y3175D01*
G01X20828Y15875D01*
G01X18288Y15875D01*
G54D26*
G01X18288Y15875D02*
G01X18288Y5080D01*
G54D27*
G01X46736Y23876D02*
G01X41656Y23876D01*
G01X41656Y28956D01*
G01X46736Y28956D01*
G01X46736Y23876D01*
G54D10*
G01X29616Y37884D02*
G01X35915Y37884D01*
G01X29616Y42379D02*
G01X35915Y42379D01*
G54D26*
G01X69215Y59563D02*
G01X50800Y59563D01*
G54D27*
G01X69215Y59563D02*
G01X69215Y57023D01*
G01X48895Y57023D01*
G01X48895Y59563D01*
G01X50800Y59563D01*
G54D26*
G01X69215Y57023D02*
G01X50800Y57023D01*
G54D27*
G01X69215Y57023D02*
G01X69215Y54483D01*
G01X48895Y54483D01*
G01X48895Y57023D01*
G01X50800Y57023D01*
G54D26*
G01X38735Y59563D02*
G01X20320Y59563D01*
G54D27*
G01X38735Y59563D02*
G01X38735Y57023D01*
G01X18415Y57023D01*
G01X18415Y59563D01*
G01X20320Y59563D01*
G54D26*
G01X48895Y51943D02*
G01X67310Y51943D01*
G54D27*
G01X48895Y51943D02*
G01X48895Y54483D01*
G01X69215Y54483D01*
G01X69215Y51943D01*
G01X67310Y51943D01*
G54D26*
G01X48895Y18034D02*
G01X67310Y18034D01*
G54D27*
G01X48895Y18034D02*
G01X48895Y20574D01*
G01X69215Y20574D01*
G01X69215Y18034D01*
G01X67310Y18034D01*
G54D26*
G01X38735Y57023D02*
G01X20320Y57023D01*
G54D27*
G01X38735Y57023D02*
G01X38735Y54483D01*
G01X18415Y54483D01*
G01X18415Y57023D01*
G01X20320Y57023D01*
G01X20320Y72263D02*
G01X18415Y72263D01*
G01X18415Y69723D01*
G01X33655Y69723D01*
G01X33655Y72263D01*
G54D26*
G01X33655Y72263D02*
G01X20320Y72263D01*
G54D28*
G01X8943Y14627D02*
G01X2242Y14627D01*
G01X2242Y17876D01*
G01X8943Y17876D01*
G01X8943Y14627D01*
G54D10*
G01X5814Y54394D02*
G01X5814Y52794D01*
G01X2313Y54394D02*
G01X2313Y52793D01*
G01X4563Y52553D02*
G01X5613Y52553D01*
G01X4563Y54634D02*
G01X5613Y54634D01*
G01X3564Y52553D02*
G01X2514Y52553D01*
G01X3564Y54634D02*
G01X2514Y54634D01*
G01X2313Y54413D02*
G01X2313Y54394D01*
G01X2313Y54433D02*
G01X2313Y54394D01*
G01X2313Y52754D02*
G01X2313Y52793D01*
G01X5814Y54433D02*
G01X5814Y54394D01*
G01X5814Y52754D02*
G01X5814Y52794D01*
G01X43141Y65377D02*
G01X44741Y65377D01*
G01X43141Y61876D02*
G01X44742Y61876D01*
G01X44982Y64126D02*
G01X44982Y65176D01*
G01X42901Y64126D02*
G01X42901Y65176D01*
G01X44982Y63127D02*
G01X44982Y62077D01*
G01X42901Y63127D02*
G01X42901Y62077D01*
G01X43122Y61876D02*
G01X43141Y61876D01*
G01X43102Y61876D02*
G01X43141Y61876D01*
G01X44781Y61876D02*
G01X44742Y61876D01*
G01X43102Y65377D02*
G01X43141Y65377D01*
G01X44781Y65377D02*
G01X44741Y65377D01*
G01X5814Y50203D02*
G01X5814Y48603D01*
G01X2313Y50203D02*
G01X2313Y48602D01*
G01X4563Y48362D02*
G01X5613Y48362D01*
G01X4563Y50443D02*
G01X5613Y50443D01*
G01X3564Y48362D02*
G01X2514Y48362D01*
G01X3564Y50443D02*
G01X2514Y50443D01*
G01X2313Y50222D02*
G01X2313Y50203D01*
G01X2313Y50242D02*
G01X2313Y50203D01*
G01X2313Y48563D02*
G01X2313Y48602D01*
G01X5814Y50242D02*
G01X5814Y50203D01*
G01X5814Y48563D02*
G01X5814Y48603D01*
G01X5941Y32042D02*
G01X5941Y30442D01*
G01X2440Y32042D02*
G01X2440Y30441D01*
G01X4690Y30201D02*
G01X5740Y30201D01*
G01X4690Y32282D02*
G01X5740Y32282D01*
G01X3691Y30201D02*
G01X2641Y30201D01*
G01X3691Y32282D02*
G01X2641Y32282D01*
G01X2440Y32061D02*
G01X2440Y32042D01*
G01X2440Y32081D02*
G01X2440Y32042D01*
G01X2440Y30402D02*
G01X2440Y30441D01*
G01X5941Y32081D02*
G01X5941Y32042D01*
G01X5941Y30402D02*
G01X5941Y30442D01*
G01X5941Y36233D02*
G01X5941Y34633D01*
G01X2440Y36233D02*
G01X2440Y34632D01*
G01X4690Y34392D02*
G01X5740Y34392D01*
G01X4690Y36473D02*
G01X5740Y36473D01*
G01X3691Y34392D02*
G01X2641Y34392D01*
G01X3691Y36473D02*
G01X2641Y36473D01*
G01X2440Y36252D02*
G01X2440Y36233D01*
G01X2440Y36272D02*
G01X2440Y36233D01*
G01X2440Y34593D02*
G01X2440Y34632D01*
G01X5941Y36272D02*
G01X5941Y36233D01*
G01X5941Y34593D02*
G01X5941Y34633D01*
G01X5941Y23660D02*
G01X5941Y22060D01*
G01X2440Y23660D02*
G01X2440Y22059D01*
G01X4690Y21819D02*
G01X5740Y21819D01*
G01X4690Y23900D02*
G01X5740Y23900D01*
G01X3691Y21819D02*
G01X2641Y21819D01*
G01X3691Y23900D02*
G01X2641Y23900D01*
G01X2440Y23679D02*
G01X2440Y23660D01*
G01X2440Y23699D02*
G01X2440Y23660D01*
G01X2440Y22020D02*
G01X2440Y22059D01*
G01X5941Y23699D02*
G01X5941Y23660D01*
G01X5941Y22020D02*
G01X5941Y22060D01*
G01X26327Y37365D02*
G01X24727Y37365D01*
G01X26327Y40866D02*
G01X24726Y40866D01*
G01X24486Y38616D02*
G01X24486Y37566D01*
G01X26567Y38616D02*
G01X26567Y37566D01*
G01X24486Y39615D02*
G01X24486Y40665D01*
G01X26567Y39615D02*
G01X26567Y40665D01*
G01X26346Y40866D02*
G01X26327Y40866D01*
G01X26366Y40866D02*
G01X26327Y40866D01*
G01X24687Y40866D02*
G01X24726Y40866D01*
G01X26366Y37365D02*
G01X26327Y37365D01*
G01X24687Y37365D02*
G01X24727Y37365D01*
G01X5941Y27851D02*
G01X5941Y26251D01*
G01X2440Y27851D02*
G01X2440Y26250D01*
G01X4690Y26010D02*
G01X5740Y26010D01*
G01X4690Y28091D02*
G01X5740Y28091D01*
G01X3691Y26010D02*
G01X2641Y26010D01*
G01X3691Y28091D02*
G01X2641Y28091D01*
G01X2440Y27870D02*
G01X2440Y27851D01*
G01X2440Y27890D02*
G01X2440Y27851D01*
G01X2440Y26211D02*
G01X2440Y26250D01*
G01X5941Y27890D02*
G01X5941Y27851D01*
G01X5941Y26211D02*
G01X5941Y26251D01*
G01X9232Y5433D02*
G01X10832Y5433D01*
G01X9232Y1932D02*
G01X10833Y1932D01*
G01X11073Y4182D02*
G01X11073Y5232D01*
G01X8992Y4182D02*
G01X8992Y5232D01*
G01X11073Y3183D02*
G01X11073Y2133D01*
G01X8992Y3183D02*
G01X8992Y2133D01*
G01X9213Y1932D02*
G01X9232Y1932D01*
G01X9193Y1932D02*
G01X9232Y1932D01*
G01X10872Y1932D02*
G01X10833Y1932D01*
G01X9193Y5433D02*
G01X9232Y5433D01*
G01X10872Y5433D02*
G01X10832Y5433D01*
G01X13296Y5433D02*
G01X14896Y5433D01*
G01X13296Y1932D02*
G01X14897Y1932D01*
G01X15137Y4182D02*
G01X15137Y5232D01*
G01X13056Y4182D02*
G01X13056Y5232D01*
G01X15137Y3183D02*
G01X15137Y2133D01*
G01X13056Y3183D02*
G01X13056Y2133D01*
G01X13277Y1932D02*
G01X13296Y1932D01*
G01X13257Y1932D02*
G01X13296Y1932D01*
G01X14936Y1932D02*
G01X14897Y1932D01*
G01X13257Y5433D02*
G01X13296Y5433D01*
G01X14936Y5433D02*
G01X14896Y5433D01*
G01X45885Y39397D02*
G01X44285Y39397D01*
G01X45885Y42898D02*
G01X44284Y42898D01*
G01X44044Y40648D02*
G01X44044Y39598D01*
G01X46125Y40648D02*
G01X46125Y39598D01*
G01X44044Y41647D02*
G01X44044Y42697D01*
G01X46125Y41647D02*
G01X46125Y42697D01*
G01X45904Y42898D02*
G01X45885Y42898D01*
G01X45924Y42898D02*
G01X45885Y42898D01*
G01X44245Y42898D02*
G01X44284Y42898D01*
G01X45924Y39397D02*
G01X45885Y39397D01*
G01X44245Y39397D02*
G01X44285Y39397D01*
G01X40805Y37365D02*
G01X39205Y37365D01*
G01X40805Y40866D02*
G01X39204Y40866D01*
G01X38964Y38616D02*
G01X38964Y37566D01*
G01X41045Y38616D02*
G01X41045Y37566D01*
G01X38964Y39615D02*
G01X38964Y40665D01*
G01X41045Y39615D02*
G01X41045Y40665D01*
G01X40824Y40866D02*
G01X40805Y40866D01*
G01X40844Y40866D02*
G01X40805Y40866D01*
G01X39165Y40866D02*
G01X39204Y40866D01*
G01X40844Y37365D02*
G01X40805Y37365D01*
G01X39165Y37365D02*
G01X39205Y37365D01*
G54D28*
G01X8816Y41043D02*
G01X2115Y41043D01*
G01X2115Y44292D01*
G01X8816Y44292D01*
G01X8816Y41043D01*
G54D10*
G01X69977Y45796D02*
G01X69977Y39751D01*
G01X69977Y31927D02*
G01X69977Y37973D01*
G01X69977Y31927D02*
G01X68843Y31927D01*
G01X67046Y31927D02*
G01X66303Y31927D01*
G01X64506Y31927D02*
G01X63763Y31927D01*
G01X61966Y31927D02*
G01X61223Y31927D01*
G01X59426Y31927D02*
G01X58683Y31927D01*
G01X56886Y31927D02*
G01X56143Y31927D01*
G01X54346Y31927D02*
G01X53603Y31927D01*
G01X51806Y31927D02*
G01X51063Y31927D01*
G01X49266Y31927D02*
G01X48523Y31927D01*
G01X46726Y31927D02*
G01X45983Y31927D01*
G01X44186Y31927D02*
G01X43443Y31927D01*
G01X41646Y31927D02*
G01X40903Y31927D01*
G01X39106Y31927D02*
G01X38363Y31927D01*
G01X36566Y31927D02*
G01X35823Y31927D01*
G01X34026Y31927D02*
G01X33283Y31927D01*
G01X31486Y31927D02*
G01X30743Y31927D01*
G01X28946Y31927D02*
G01X28203Y31927D01*
G01X26406Y31927D02*
G01X25663Y31927D01*
G01X23866Y31927D02*
G01X23123Y31927D01*
G01X21326Y31927D02*
G01X20583Y31927D01*
G01X18786Y31927D02*
G01X17653Y31927D01*
G01X69977Y45796D02*
G01X69076Y45796D01*
G01X66813Y45796D02*
G01X66303Y45796D01*
G01X64506Y45796D02*
G01X63763Y45796D01*
G01X61966Y45796D02*
G01X61223Y45796D01*
G01X59426Y45796D02*
G01X58683Y45796D01*
G01X56886Y45796D02*
G01X56143Y45796D01*
G01X54346Y45796D02*
G01X53603Y45796D01*
G01X51806Y45796D02*
G01X51063Y45796D01*
G01X49266Y45796D02*
G01X48523Y45796D01*
G01X46726Y45796D02*
G01X45983Y45796D01*
G01X44186Y45796D02*
G01X43443Y45796D01*
G01X41646Y45796D02*
G01X40903Y45796D01*
G01X39106Y45796D02*
G01X38363Y45796D01*
G01X36566Y45796D02*
G01X35823Y45796D01*
G01X34026Y45796D02*
G01X33283Y45796D01*
G01X31486Y45796D02*
G01X30743Y45796D01*
G01X28946Y45796D02*
G01X28203Y45796D01*
G01X26406Y45796D02*
G01X25663Y45796D01*
G01X23866Y45796D02*
G01X23123Y45796D01*
G01X21326Y45796D02*
G01X20583Y45796D01*
G01X18786Y45796D02*
G01X17653Y45796D01*
G01X17653Y31927D02*
G01X17653Y45796D01*
G54D26*
G01X64008Y68834D02*
G01X64008Y65659D01*
G54D27*
G01X64008Y68834D02*
G01X66548Y68834D01*
G01X66548Y63754D01*
G01X64008Y63754D01*
G01X64008Y65659D01*
G54D26*
G01X33655Y69723D02*
G01X30480Y69723D01*
G54D27*
G01X33655Y69723D02*
G01X33655Y67183D01*
G01X28575Y67183D01*
G01X28575Y69723D01*
G01X30480Y69723D01*
G01X25908Y5080D02*
G01X25908Y3175D01*
G01X28448Y3175D01*
G01X28448Y15875D01*
G01X25908Y15875D01*
G54D26*
G01X25908Y15875D02*
G01X25908Y5080D01*
G54D27*
G01X20828Y5080D02*
G01X20828Y3175D01*
G01X23368Y3175D01*
G01X23368Y15875D01*
G01X20828Y15875D01*
G54D26*
G01X20828Y15875D02*
G01X20828Y5080D01*
G54D27*
G01X37592Y9017D02*
G01X35687Y9017D01*
G01X35687Y6477D01*
G01X48387Y6477D01*
G01X48387Y9017D01*
G54D26*
G01X48387Y9017D02*
G01X37592Y9017D01*
G54D27*
G01X37592Y6477D02*
G01X35687Y6477D01*
G01X35687Y3937D01*
G01X48387Y3937D01*
G01X48387Y6477D01*
G54D26*
G01X48387Y6477D02*
G01X37592Y6477D01*
G54D27*
G01X23368Y5080D02*
G01X23368Y3175D01*
G01X25908Y3175D01*
G01X25908Y15875D01*
G01X23368Y15875D01*
G54D26*
G01X23368Y15875D02*
G01X23368Y5080D01*
G54D29*
G01X15985Y38208D02*
G01X15985Y36608D01*
G01X13986Y36608D01*
G01X13986Y38208D01*
G01X13986Y39007D02*
G01X13986Y40607D01*
G01X15985Y40607D01*
G01X15985Y39007D01*
G01X15985Y36608D02*
G01X15985Y36608D01*
G01X15685Y36308D01*
G01X14286Y36308D01*
G01X14286Y36308D01*
G01X13986Y36608D01*
G01X11192Y14623D02*
G01X11192Y16223D01*
G01X13191Y16223D01*
G01X13191Y14623D01*
G01X13191Y13824D02*
G01X13191Y12224D01*
G01X11192Y12224D01*
G01X11192Y13824D01*
G01X11192Y16223D02*
G01X11192Y16223D01*
G01X11492Y16523D01*
G01X12891Y16523D01*
G01X12891Y16523D01*
G01X13191Y16223D01*
G01X13191Y20301D02*
G01X13191Y18701D01*
G01X11192Y18701D01*
G01X11192Y20301D01*
G01X11192Y21100D02*
G01X11192Y22700D01*
G01X13191Y22700D01*
G01X13191Y21100D01*
G01X13191Y18701D02*
G01X13191Y18701D01*
G01X12891Y18401D01*
G01X11492Y18401D01*
G01X11492Y18401D01*
G01X11192Y18701D01*
G54D10*
G01X14469Y48256D02*
G01X15720Y48256D01*
G01X14469Y50295D02*
G01X15720Y50295D01*
G01X13470Y48256D02*
G01X12219Y48256D01*
G01X13470Y50295D02*
G01X12219Y50295D01*
G01X15720Y48256D02*
G01X15720Y50295D01*
G01X12219Y48256D02*
G01X12219Y50295D01*
G01X44961Y59046D02*
G01X44961Y60297D01*
G01X42922Y59046D02*
G01X42922Y60297D01*
G01X44961Y58047D02*
G01X44961Y56796D01*
G01X42922Y58047D02*
G01X42922Y56796D01*
G01X44961Y60297D02*
G01X42922Y60297D01*
G01X44961Y56796D02*
G01X42922Y56796D01*
G01X9643Y24380D02*
G01X10894Y24380D01*
G01X9643Y26419D02*
G01X10894Y26419D01*
G01X8644Y24380D02*
G01X7393Y24380D01*
G01X8644Y26419D02*
G01X7393Y26419D01*
G01X10894Y24380D02*
G01X10894Y26419D01*
G01X7393Y24380D02*
G01X7393Y26419D01*
G01X13211Y9516D02*
G01X13211Y10767D01*
G01X11172Y9516D02*
G01X11172Y10767D01*
G01X13211Y8517D02*
G01X13211Y7266D01*
G01X11172Y8517D02*
G01X11172Y7266D01*
G01X13211Y10767D02*
G01X11172Y10767D01*
G01X13211Y7266D02*
G01X11172Y7266D01*
G01X376Y57921D02*
G01X376Y66921D01*
G01X376Y66921D02*
G01X14776Y66921D01*
G01X4076Y57921D02*
G01X4076Y66921D01*
G01X4156Y59221D02*
G01X14776Y59221D01*
G01X4156Y65621D02*
G01X14776Y65621D01*
G01X14776Y66921D02*
G01X14776Y64845D01*
G01X14776Y59996D02*
G01X14776Y57921D01*
G01X376Y57921D02*
G01X8761Y57921D01*
G01X13790Y57921D02*
G01X14776Y57921D01*
G54D27*
G01X64008Y3810D02*
G01X64008Y8890D01*
G01X56388Y8890D01*
G01X56388Y3810D01*
G01X64008Y3810D01*
G01X59139Y3810D01*
G54D10*
G01X49277Y69529D02*
G01X59677Y69529D01*
G01X59677Y64329D01*
G01X49277Y64329D01*
G01X49277Y69529D01*
G01X63786Y63829D02*
G01X48786Y63829D01*
G01X63776Y63829D02*
G01X63776Y92829D01*
G01X48776Y92829D02*
G01X63776Y92829D01*
G01X48776Y92829D02*
G01X48776Y63829D01*
G54D30*
G01X70490Y18905D02*
G01X70594Y18958D01*
G01X70698Y19062D01*
G01X70749Y19164D01*
G01X70749Y19372D01*
G01X70698Y19476D01*
G01X70594Y19580D01*
G01X70490Y19634D01*
G01X70332Y19685D01*
G01X70073Y19685D01*
G01X69918Y19634D01*
G01X69814Y19580D01*
G01X69710Y19476D01*
G01X69659Y19372D01*
G01X69659Y19164D01*
G01X69710Y19062D01*
G01X69814Y18958D01*
G01X69918Y18905D01*
G01X70073Y18905D01*
G01X70073Y19164D02*
G01X70073Y18905D01*
G01X70749Y22110D02*
G01X70749Y22628D01*
G01X70281Y22682D01*
G01X70332Y22628D01*
G01X70385Y22473D01*
G01X70385Y22316D01*
G01X70332Y22161D01*
G01X70231Y22057D01*
G01X70073Y22006D01*
G01X69969Y22006D01*
G01X69814Y22057D01*
G01X69710Y22161D01*
G01X69659Y22316D01*
G01X69659Y22473D01*
G01X69710Y22628D01*
G01X69761Y22682D01*
G01X69865Y22733D01*
G01X70749Y21663D02*
G01X69659Y21247D01*
G01X70749Y20830D02*
G01X69659Y21247D01*
G01X29187Y4963D02*
G01X29758Y4963D01*
G01X29446Y4546D01*
G01X29603Y4546D01*
G01X29705Y4495D01*
G01X29758Y4445D01*
G01X29809Y4287D01*
G01X29809Y4183D01*
G01X29758Y4028D01*
G01X29654Y3924D01*
G01X29499Y3873D01*
G01X29342Y3873D01*
G01X29187Y3924D01*
G01X29133Y3975D01*
G01X29083Y4079D01*
G01X30152Y4963D02*
G01X30568Y3873D01*
G01X30985Y4963D02*
G01X30568Y3873D01*
G01X31432Y4963D02*
G01X32004Y4963D01*
G01X31691Y4546D01*
G01X31846Y4546D01*
G01X31950Y4495D01*
G01X32004Y4445D01*
G01X32054Y4287D01*
G01X32054Y4183D01*
G01X32004Y4028D01*
G01X31899Y3924D01*
G01X31742Y3873D01*
G01X31587Y3873D01*
G01X31432Y3924D01*
G01X31379Y3975D01*
G01X31328Y4079D01*
G01X29862Y7244D02*
G01X29809Y7348D01*
G01X29705Y7452D01*
G01X29603Y7503D01*
G01X29395Y7503D01*
G01X29291Y7452D01*
G01X29187Y7348D01*
G01X29133Y7244D01*
G01X29083Y7086D01*
G01X29083Y6827D01*
G01X29133Y6672D01*
G01X29187Y6568D01*
G01X29291Y6464D01*
G01X29395Y6413D01*
G01X29603Y6413D01*
G01X29705Y6464D01*
G01X29809Y6568D01*
G01X29862Y6672D01*
G01X29862Y6827D01*
G01X29603Y6827D02*
G01X29862Y6827D01*
G01X30205Y7503D02*
G01X30205Y6413D01*
G01X30205Y7503D02*
G01X30932Y6413D01*
G01X30932Y7503D02*
G01X30932Y6413D01*
G01X31275Y7503D02*
G01X31275Y6413D01*
G01X31275Y7503D02*
G01X31638Y7503D01*
G01X31795Y7452D01*
G01X31899Y7348D01*
G01X31950Y7244D01*
G01X32004Y7086D01*
G01X32004Y6827D01*
G01X31950Y6672D01*
G01X31899Y6568D01*
G01X31795Y6464D01*
G01X31638Y6413D01*
G01X31275Y6413D01*
G01X29705Y10043D02*
G01X29187Y10043D01*
G01X29133Y9575D01*
G01X29187Y9626D01*
G01X29342Y9679D01*
G01X29499Y9679D01*
G01X29654Y9626D01*
G01X29758Y9525D01*
G01X29809Y9367D01*
G01X29809Y9263D01*
G01X29758Y9108D01*
G01X29654Y9004D01*
G01X29499Y8953D01*
G01X29342Y8953D01*
G01X29187Y9004D01*
G01X29133Y9055D01*
G01X29083Y9159D01*
G01X30152Y10043D02*
G01X30568Y8953D01*
G01X30985Y10043D02*
G01X30568Y8953D01*
G01X29809Y12555D02*
G01X29705Y12659D01*
G01X29550Y12710D01*
G01X29342Y12710D01*
G01X29187Y12659D01*
G01X29083Y12555D01*
G01X29083Y12451D01*
G01X29133Y12346D01*
G01X29187Y12293D01*
G01X29291Y12242D01*
G01X29603Y12138D01*
G01X29705Y12087D01*
G01X29758Y12034D01*
G01X29809Y11930D01*
G01X29809Y11775D01*
G01X29705Y11671D01*
G01X29550Y11620D01*
G01X29342Y11620D01*
G01X29187Y11671D01*
G01X29083Y11775D01*
G01X30152Y12710D02*
G01X30152Y11620D01*
G01X30152Y12710D02*
G01X30518Y12710D01*
G01X30673Y12659D01*
G01X30777Y12555D01*
G01X30827Y12451D01*
G01X30881Y12293D01*
G01X30881Y12034D01*
G01X30827Y11879D01*
G01X30777Y11775D01*
G01X30673Y11671D01*
G01X30518Y11620D01*
G01X30152Y11620D01*
G01X31638Y12710D02*
G01X31224Y11620D01*
G01X31638Y12710D02*
G01X32054Y11620D01*
G01X31379Y11983D02*
G01X31899Y11983D01*
G01X29809Y15095D02*
G01X29705Y15199D01*
G01X29550Y15250D01*
G01X29342Y15250D01*
G01X29187Y15199D01*
G01X29083Y15095D01*
G01X29083Y14991D01*
G01X29133Y14886D01*
G01X29187Y14833D01*
G01X29291Y14782D01*
G01X29603Y14678D01*
G01X29705Y14627D01*
G01X29758Y14574D01*
G01X29809Y14470D01*
G01X29809Y14315D01*
G01X29705Y14211D01*
G01X29550Y14160D01*
G01X29342Y14160D01*
G01X29187Y14211D01*
G01X29083Y14315D01*
G01X30932Y14991D02*
G01X30881Y15095D01*
G01X30777Y15199D01*
G01X30673Y15250D01*
G01X30464Y15250D01*
G01X30360Y15199D01*
G01X30256Y15095D01*
G01X30205Y14991D01*
G01X30152Y14833D01*
G01X30152Y14574D01*
G01X30205Y14419D01*
G01X30256Y14315D01*
G01X30360Y14211D01*
G01X30464Y14160D01*
G01X30673Y14160D01*
G01X30777Y14211D01*
G01X30881Y14315D01*
G01X30932Y14419D01*
G01X31275Y15250D02*
G01X31275Y14160D01*
G01X31275Y14160D02*
G01X31899Y14160D01*
G01X50683Y27904D02*
G01X49593Y28321D01*
G01X50683Y27904D02*
G01X49593Y27490D01*
G01X49956Y28166D02*
G01X49956Y27645D01*
G01X50683Y26418D02*
G01X49593Y26939D01*
G01X50683Y27147D02*
G01X50683Y26418D01*
G01X53223Y27904D02*
G01X52133Y28321D01*
G01X53223Y27904D02*
G01X52133Y27490D01*
G01X52496Y28166D02*
G01X52496Y27645D01*
G01X53068Y26522D02*
G01X53172Y26576D01*
G01X53223Y26730D01*
G01X53223Y26835D01*
G01X53172Y26990D01*
G01X53014Y27094D01*
G01X52755Y27147D01*
G01X52496Y27147D01*
G01X52288Y27094D01*
G01X52184Y26990D01*
G01X52133Y26835D01*
G01X52133Y26784D01*
G01X52184Y26626D01*
G01X52288Y26522D01*
G01X52443Y26471D01*
G01X52496Y26471D01*
G01X52651Y26522D01*
G01X52755Y26626D01*
G01X52806Y26784D01*
G01X52806Y26835D01*
G01X52755Y26990D01*
G01X52651Y27094D01*
G01X52496Y27147D01*
G01X55763Y27904D02*
G01X54673Y28321D01*
G01X55763Y27904D02*
G01X54673Y27490D01*
G01X55036Y28166D02*
G01X55036Y27645D01*
G01X55763Y26522D02*
G01X55763Y27043D01*
G01X55295Y27094D01*
G01X55346Y27043D01*
G01X55399Y26885D01*
G01X55399Y26730D01*
G01X55346Y26576D01*
G01X55245Y26471D01*
G01X55087Y26418D01*
G01X54983Y26418D01*
G01X54828Y26471D01*
G01X54724Y26576D01*
G01X54673Y26730D01*
G01X54673Y26885D01*
G01X54724Y27043D01*
G01X54775Y27094D01*
G01X54879Y27147D01*
G01X58303Y27904D02*
G01X57213Y28321D01*
G01X58303Y27904D02*
G01X57213Y27490D01*
G01X57576Y28166D02*
G01X57576Y27645D01*
G01X58303Y26626D02*
G01X57576Y27147D01*
G01X57576Y26367D01*
G01X58303Y26626D02*
G01X57213Y26626D01*
G01X60843Y27904D02*
G01X59753Y28321D01*
G01X60843Y27904D02*
G01X59753Y27490D01*
G01X60116Y28166D02*
G01X60116Y27645D01*
G01X60843Y27043D02*
G01X60843Y26471D01*
G01X60426Y26784D01*
G01X60426Y26626D01*
G01X60375Y26522D01*
G01X60325Y26471D01*
G01X60167Y26418D01*
G01X60063Y26418D01*
G01X59908Y26471D01*
G01X59804Y26576D01*
G01X59753Y26730D01*
G01X59753Y26885D01*
G01X59804Y27043D01*
G01X59855Y27094D01*
G01X59959Y27147D01*
G01X63383Y27904D02*
G01X62293Y28321D01*
G01X63383Y27904D02*
G01X62293Y27490D01*
G01X62656Y28166D02*
G01X62656Y27645D01*
G01X63124Y27094D02*
G01X63174Y27094D01*
G01X63279Y27043D01*
G01X63332Y26990D01*
G01X63383Y26885D01*
G01X63383Y26680D01*
G01X63332Y26576D01*
G01X63279Y26522D01*
G01X63174Y26471D01*
G01X63070Y26471D01*
G01X62966Y26522D01*
G01X62811Y26626D01*
G01X62293Y27147D01*
G01X62293Y26418D01*
G01X65923Y27904D02*
G01X64833Y28321D01*
G01X65923Y27904D02*
G01X64833Y27490D01*
G01X65196Y28166D02*
G01X65196Y27645D01*
G01X65714Y27147D02*
G01X65768Y27043D01*
G01X65923Y26885D01*
G01X64833Y26885D01*
G01X68590Y27904D02*
G01X67500Y28321D01*
G01X68590Y27904D02*
G01X67500Y27490D01*
G01X67863Y28166D02*
G01X67863Y27645D01*
G01X68590Y26835D02*
G01X68539Y26990D01*
G01X68381Y27094D01*
G01X68122Y27147D01*
G01X67967Y27147D01*
G01X67706Y27094D01*
G01X67551Y26990D01*
G01X67500Y26835D01*
G01X67500Y26730D01*
G01X67551Y26576D01*
G01X67706Y26471D01*
G01X67967Y26418D01*
G01X68122Y26418D01*
G01X68381Y26471D01*
G01X68539Y26576D01*
G01X68590Y26730D01*
G01X68590Y26835D01*
G01X38110Y28829D02*
G01X37020Y28829D01*
G01X38110Y28829D02*
G01X38110Y28465D01*
G01X38059Y28308D01*
G01X37955Y28206D01*
G01X37851Y28153D01*
G01X37693Y28102D01*
G01X37434Y28102D01*
G01X37279Y28153D01*
G01X37175Y28206D01*
G01X37071Y28308D01*
G01X37020Y28465D01*
G01X37020Y28829D01*
G01X37851Y27706D02*
G01X37901Y27706D01*
G01X38006Y27655D01*
G01X38059Y27602D01*
G01X38110Y27498D01*
G01X38110Y27292D01*
G01X38059Y27188D01*
G01X38006Y27134D01*
G01X37901Y27084D01*
G01X37797Y27084D01*
G01X37693Y27134D01*
G01X37538Y27238D01*
G01X37020Y27759D01*
G01X37020Y27030D01*
G01X38110Y26583D02*
G01X38110Y26012D01*
G01X37693Y26324D01*
G01X37693Y26169D01*
G01X37642Y26065D01*
G01X37592Y26012D01*
G01X37434Y25961D01*
G01X37330Y25961D01*
G01X37175Y26012D01*
G01X37071Y26116D01*
G01X37020Y26273D01*
G01X37020Y26428D01*
G01X37071Y26583D01*
G01X37122Y26636D01*
G01X37226Y26687D01*
G01X35443Y28829D02*
G01X34353Y28829D01*
G01X35443Y28829D02*
G01X35443Y28465D01*
G01X35392Y28308D01*
G01X35288Y28206D01*
G01X35184Y28153D01*
G01X35026Y28102D01*
G01X34767Y28102D01*
G01X34612Y28153D01*
G01X34508Y28206D01*
G01X34404Y28308D01*
G01X34353Y28465D01*
G01X34353Y28829D01*
G01X35184Y27706D02*
G01X35234Y27706D01*
G01X35339Y27655D01*
G01X35392Y27602D01*
G01X35443Y27498D01*
G01X35443Y27292D01*
G01X35392Y27188D01*
G01X35339Y27134D01*
G01X35234Y27084D01*
G01X35130Y27084D01*
G01X35026Y27134D01*
G01X34871Y27238D01*
G01X34353Y27759D01*
G01X34353Y27030D01*
G01X35184Y26636D02*
G01X35234Y26636D01*
G01X35339Y26583D01*
G01X35392Y26532D01*
G01X35443Y26428D01*
G01X35443Y26220D01*
G01X35392Y26116D01*
G01X35339Y26065D01*
G01X35234Y26012D01*
G01X35130Y26012D01*
G01X35026Y26065D01*
G01X34871Y26169D01*
G01X34353Y26687D01*
G01X34353Y25961D01*
G01X32903Y28829D02*
G01X31813Y28829D01*
G01X32903Y28829D02*
G01X32903Y28465D01*
G01X32852Y28308D01*
G01X32748Y28206D01*
G01X32644Y28153D01*
G01X32486Y28102D01*
G01X32227Y28102D01*
G01X32072Y28153D01*
G01X31968Y28206D01*
G01X31864Y28308D01*
G01X31813Y28465D01*
G01X31813Y28829D01*
G01X32644Y27706D02*
G01X32694Y27706D01*
G01X32799Y27655D01*
G01X32852Y27602D01*
G01X32903Y27498D01*
G01X32903Y27292D01*
G01X32852Y27188D01*
G01X32799Y27134D01*
G01X32694Y27084D01*
G01X32590Y27084D01*
G01X32486Y27134D01*
G01X32331Y27238D01*
G01X31813Y27759D01*
G01X31813Y27030D01*
G01X32694Y26687D02*
G01X32748Y26583D01*
G01X32903Y26428D01*
G01X31813Y26428D01*
G01X30363Y28829D02*
G01X29273Y28829D01*
G01X30363Y28829D02*
G01X30363Y28465D01*
G01X30312Y28308D01*
G01X30208Y28206D01*
G01X30104Y28153D01*
G01X29946Y28102D01*
G01X29687Y28102D01*
G01X29532Y28153D01*
G01X29428Y28206D01*
G01X29324Y28308D01*
G01X29273Y28465D01*
G01X29273Y28829D01*
G01X30104Y27706D02*
G01X30154Y27706D01*
G01X30259Y27655D01*
G01X30312Y27602D01*
G01X30363Y27498D01*
G01X30363Y27292D01*
G01X30312Y27188D01*
G01X30259Y27134D01*
G01X30154Y27084D01*
G01X30050Y27084D01*
G01X29946Y27134D01*
G01X29791Y27238D01*
G01X29273Y27759D01*
G01X29273Y27030D01*
G01X30363Y26377D02*
G01X30312Y26532D01*
G01X30154Y26636D01*
G01X29895Y26687D01*
G01X29740Y26687D01*
G01X29479Y26636D01*
G01X29324Y26532D01*
G01X29273Y26377D01*
G01X29273Y26273D01*
G01X29324Y26116D01*
G01X29479Y26012D01*
G01X29740Y25961D01*
G01X29895Y25961D01*
G01X30154Y26012D01*
G01X30312Y26116D01*
G01X30363Y26273D01*
G01X30363Y26377D01*
G01X27950Y28829D02*
G01X26860Y28829D01*
G01X27950Y28829D02*
G01X27950Y28465D01*
G01X27899Y28308D01*
G01X27795Y28206D01*
G01X27691Y28153D01*
G01X27533Y28102D01*
G01X27274Y28102D01*
G01X27119Y28153D01*
G01X27015Y28206D01*
G01X26911Y28308D01*
G01X26860Y28465D01*
G01X26860Y28829D01*
G01X27741Y27759D02*
G01X27795Y27655D01*
G01X27950Y27498D01*
G01X26860Y27498D01*
G01X27586Y26479D02*
G01X27432Y26532D01*
G01X27327Y26636D01*
G01X27274Y26791D01*
G01X27274Y26845D01*
G01X27327Y27000D01*
G01X27432Y27104D01*
G01X27586Y27155D01*
G01X27637Y27155D01*
G01X27795Y27104D01*
G01X27899Y27000D01*
G01X27950Y26845D01*
G01X27950Y26791D01*
G01X27899Y26636D01*
G01X27795Y26532D01*
G01X27586Y26479D01*
G01X27327Y26479D01*
G01X27066Y26532D01*
G01X26911Y26636D01*
G01X26860Y26791D01*
G01X26860Y26896D01*
G01X26911Y27051D01*
G01X27015Y27104D01*
G01X25410Y28829D02*
G01X24320Y28829D01*
G01X25410Y28829D02*
G01X25410Y28465D01*
G01X25359Y28308D01*
G01X25255Y28206D01*
G01X25151Y28153D01*
G01X24993Y28102D01*
G01X24734Y28102D01*
G01X24579Y28153D01*
G01X24475Y28206D01*
G01X24371Y28308D01*
G01X24320Y28465D01*
G01X24320Y28829D01*
G01X25201Y27759D02*
G01X25255Y27655D01*
G01X25410Y27498D01*
G01X24320Y27498D01*
G01X25410Y26896D02*
G01X25359Y27051D01*
G01X25255Y27104D01*
G01X25151Y27104D01*
G01X25046Y27051D01*
G01X24993Y26949D01*
G01X24942Y26741D01*
G01X24892Y26583D01*
G01X24787Y26479D01*
G01X24683Y26428D01*
G01X24526Y26428D01*
G01X24422Y26479D01*
G01X24371Y26532D01*
G01X24320Y26687D01*
G01X24320Y26896D01*
G01X24371Y27051D01*
G01X24422Y27104D01*
G01X24526Y27155D01*
G01X24683Y27155D01*
G01X24787Y27104D01*
G01X24892Y27000D01*
G01X24942Y26845D01*
G01X24993Y26636D01*
G01X25046Y26532D01*
G01X25151Y26479D01*
G01X25255Y26479D01*
G01X25359Y26532D01*
G01X25410Y26687D01*
G01X25410Y26896D01*
G01X22743Y28829D02*
G01X21653Y28829D01*
G01X22743Y28829D02*
G01X22743Y28465D01*
G01X22692Y28308D01*
G01X22588Y28206D01*
G01X22484Y28153D01*
G01X22326Y28102D01*
G01X22067Y28102D01*
G01X21912Y28153D01*
G01X21808Y28206D01*
G01X21704Y28308D01*
G01X21653Y28465D01*
G01X21653Y28829D01*
G01X22534Y27759D02*
G01X22588Y27655D01*
G01X22743Y27498D01*
G01X21653Y27498D01*
G01X22743Y26428D02*
G01X21653Y26949D01*
G01X22743Y27155D02*
G01X22743Y26428D01*
G01X20203Y28829D02*
G01X19113Y28829D01*
G01X20203Y28829D02*
G01X20203Y28465D01*
G01X20152Y28308D01*
G01X20048Y28206D01*
G01X19944Y28153D01*
G01X19786Y28102D01*
G01X19527Y28102D01*
G01X19372Y28153D01*
G01X19268Y28206D01*
G01X19164Y28308D01*
G01X19113Y28465D01*
G01X19113Y28829D01*
G01X19994Y27759D02*
G01X20048Y27655D01*
G01X20203Y27498D01*
G01X19113Y27498D01*
G01X20048Y26532D02*
G01X20152Y26583D01*
G01X20203Y26741D01*
G01X20203Y26845D01*
G01X20152Y27000D01*
G01X19994Y27104D01*
G01X19735Y27155D01*
G01X19476Y27155D01*
G01X19268Y27104D01*
G01X19164Y27000D01*
G01X19113Y26845D01*
G01X19113Y26791D01*
G01X19164Y26636D01*
G01X19268Y26532D01*
G01X19423Y26479D01*
G01X19476Y26479D01*
G01X19631Y26532D01*
G01X19735Y26636D01*
G01X19786Y26791D01*
G01X19786Y26845D01*
G01X19735Y27000D01*
G01X19631Y27104D01*
G01X19476Y27155D01*
G01X49674Y8133D02*
G01X49621Y8237D01*
G01X49517Y8341D01*
G01X49415Y8392D01*
G01X49207Y8392D01*
G01X49103Y8341D01*
G01X48999Y8237D01*
G01X48945Y8133D01*
G01X48895Y7975D01*
G01X48895Y7716D01*
G01X48945Y7561D01*
G01X48999Y7457D01*
G01X49103Y7353D01*
G01X49207Y7302D01*
G01X49415Y7302D01*
G01X49517Y7353D01*
G01X49621Y7457D01*
G01X49674Y7561D01*
G01X49674Y7716D01*
G01X49415Y7716D02*
G01X49674Y7716D01*
G01X50017Y8392D02*
G01X50017Y7302D01*
G01X50017Y8392D02*
G01X50744Y7302D01*
G01X50744Y8392D02*
G01X50744Y7302D01*
G01X51087Y8392D02*
G01X51087Y7302D01*
G01X51087Y8392D02*
G01X51450Y8392D01*
G01X51607Y8341D01*
G01X51711Y8237D01*
G01X51762Y8133D01*
G01X51816Y7975D01*
G01X51816Y7716D01*
G01X51762Y7561D01*
G01X51711Y7457D01*
G01X51607Y7353D01*
G01X51450Y7302D01*
G01X51087Y7302D01*
G01X40269Y21983D02*
G01X40269Y22501D01*
G01X39801Y22555D01*
G01X39852Y22501D01*
G01X39905Y22346D01*
G01X39905Y22189D01*
G01X39852Y22034D01*
G01X39751Y21930D01*
G01X39593Y21879D01*
G01X39489Y21879D01*
G01X39334Y21930D01*
G01X39230Y22034D01*
G01X39179Y22189D01*
G01X39179Y22346D01*
G01X39230Y22501D01*
G01X39281Y22555D01*
G01X39385Y22606D01*
G01X40269Y21536D02*
G01X39179Y21120D01*
G01X40269Y20703D02*
G01X39179Y21120D01*
G01X40010Y18778D02*
G01X40114Y18831D01*
G01X40218Y18935D01*
G01X40269Y19037D01*
G01X40269Y19245D01*
G01X40218Y19349D01*
G01X40114Y19453D01*
G01X40010Y19507D01*
G01X39852Y19558D01*
G01X39593Y19558D01*
G01X39438Y19507D01*
G01X39334Y19453D01*
G01X39230Y19349D01*
G01X39179Y19245D01*
G01X39179Y19037D01*
G01X39230Y18935D01*
G01X39334Y18831D01*
G01X39438Y18778D01*
G01X39593Y18778D01*
G01X39593Y19037D02*
G01X39593Y18778D01*
G01X57566Y12202D02*
G01X57150Y11112D01*
G01X57566Y12202D02*
G01X57980Y11112D01*
G01X57304Y11475D02*
G01X57825Y11475D01*
G01X58323Y12202D02*
G01X58740Y11112D01*
G01X59156Y12202D02*
G01X58740Y11112D01*
G01X59499Y12202D02*
G01X59499Y11112D01*
G01X59499Y12202D02*
G01X59966Y12202D01*
G01X60121Y12151D01*
G01X60172Y12098D01*
G01X60225Y11993D01*
G01X60225Y11889D01*
G01X60172Y11785D01*
G01X60121Y11734D01*
G01X59966Y11684D01*
G01X59499Y11684D01*
G01X59862Y11684D02*
G01X60225Y11112D01*
G01X61368Y12202D02*
G01X61368Y11112D01*
G01X62438Y12047D02*
G01X62334Y12151D01*
G01X62179Y12202D01*
G01X61970Y12202D01*
G01X61815Y12151D01*
G01X61711Y12047D01*
G01X61711Y11943D01*
G01X61762Y11838D01*
G01X61815Y11785D01*
G01X61920Y11734D01*
G01X62230Y11630D01*
G01X62334Y11579D01*
G01X62387Y11526D01*
G01X62438Y11422D01*
G01X62438Y11267D01*
G01X62334Y11163D01*
G01X62179Y11112D01*
G01X61970Y11112D01*
G01X61815Y11163D01*
G01X61711Y11267D01*
G01X62781Y12202D02*
G01X62781Y11112D01*
G01X62781Y12202D02*
G01X63248Y12202D01*
G01X63406Y12151D01*
G01X63456Y12098D01*
G01X63510Y11993D01*
G01X63510Y11838D01*
G01X63456Y11734D01*
G01X63406Y11684D01*
G01X63248Y11630D01*
G01X62781Y11630D01*
G01X57023Y9969D02*
G01X56951Y10043D01*
G01X56842Y10078D01*
G01X56697Y10078D01*
G01X56588Y10043D01*
G01X56515Y9969D01*
G01X56515Y9895D01*
G01X56550Y9824D01*
G01X56588Y9786D01*
G01X56659Y9751D01*
G01X56878Y9677D01*
G01X56951Y9641D01*
G01X56987Y9606D01*
G01X57023Y9532D01*
G01X57023Y9423D01*
G01X56951Y9349D01*
G01X56842Y9314D01*
G01X56697Y9314D01*
G01X56588Y9349D01*
G01X56515Y9423D01*
G01X57810Y9895D02*
G01X57772Y9969D01*
G01X57701Y10043D01*
G01X57627Y10078D01*
G01X57482Y10078D01*
G01X57409Y10043D01*
G01X57337Y9969D01*
G01X57299Y9895D01*
G01X57264Y9786D01*
G01X57264Y9606D01*
G01X57299Y9497D01*
G01X57337Y9423D01*
G01X57409Y9349D01*
G01X57482Y9314D01*
G01X57627Y9314D01*
G01X57701Y9349D01*
G01X57772Y9423D01*
G01X57810Y9497D01*
G01X58049Y10078D02*
G01X58049Y9314D01*
G01X58559Y10078D02*
G01X58049Y9568D01*
G01X58232Y9751D02*
G01X58559Y9314D01*
G01X59055Y10078D02*
G01X59055Y9314D01*
G01X59055Y10078D02*
G01X59347Y9314D01*
G01X59636Y10078D02*
G01X59347Y9314D01*
G01X59636Y10078D02*
G01X59636Y9314D01*
G01X59877Y10078D02*
G01X59877Y9314D01*
G01X60624Y9969D02*
G01X60553Y10043D01*
G01X60444Y10078D01*
G01X60299Y10078D01*
G01X60190Y10043D01*
G01X60116Y9969D01*
G01X60116Y9895D01*
G01X60152Y9824D01*
G01X60190Y9786D01*
G01X60261Y9751D01*
G01X60479Y9677D01*
G01X60553Y9641D01*
G01X60589Y9606D01*
G01X60624Y9532D01*
G01X60624Y9423D01*
G01X60553Y9349D01*
G01X60444Y9314D01*
G01X60299Y9314D01*
G01X60190Y9349D01*
G01X60116Y9423D01*
G01X61084Y10078D02*
G01X61010Y10043D01*
G01X60939Y9969D01*
G01X60901Y9895D01*
G01X60866Y9786D01*
G01X60866Y9606D01*
G01X60901Y9497D01*
G01X60939Y9423D01*
G01X61010Y9349D01*
G01X61084Y9314D01*
G01X61229Y9314D01*
G01X61302Y9349D01*
G01X61374Y9423D01*
G01X61412Y9497D01*
G01X61447Y9606D01*
G01X61447Y9786D01*
G01X61412Y9895D01*
G01X61374Y9969D01*
G01X61302Y10043D01*
G01X61229Y10078D01*
G01X61084Y10078D01*
G01X61849Y10078D02*
G01X61849Y9314D01*
G01X61849Y10078D02*
G01X62141Y9314D01*
G01X62430Y10078D02*
G01X62141Y9314D01*
G01X62430Y10078D02*
G01X62430Y9314D01*
G01X62887Y10078D02*
G01X62816Y10043D01*
G01X62743Y9969D01*
G01X62707Y9895D01*
G01X62671Y9786D01*
G01X62671Y9606D01*
G01X62707Y9497D01*
G01X62743Y9423D01*
G01X62816Y9349D01*
G01X62887Y9314D01*
G01X63035Y9314D01*
G01X63106Y9349D01*
G01X63179Y9423D01*
G01X63215Y9497D01*
G01X63253Y9606D01*
G01X63253Y9786D01*
G01X63215Y9895D01*
G01X63179Y9969D01*
G01X63106Y10043D01*
G01X63035Y10078D01*
G01X62887Y10078D01*
G01X64002Y9969D02*
G01X63929Y10043D01*
G01X63820Y10078D01*
G01X63675Y10078D01*
G01X63566Y10043D01*
G01X63492Y9969D01*
G01X63492Y9895D01*
G01X63527Y9824D01*
G01X63566Y9786D01*
G01X63637Y9751D01*
G01X63855Y9677D01*
G01X63929Y9641D01*
G01X63964Y9606D01*
G01X64002Y9532D01*
G01X64002Y9423D01*
G01X63929Y9349D01*
G01X63820Y9314D01*
G01X63675Y9314D01*
G01X63566Y9349D01*
G01X63492Y9423D01*
G01X64241Y10078D02*
G01X64241Y9314D01*
G01X62395Y3291D02*
G01X62357Y3365D01*
G01X62285Y3439D01*
G01X62212Y3474D01*
G01X62067Y3474D01*
G01X61993Y3439D01*
G01X61922Y3365D01*
G01X61884Y3291D01*
G01X61849Y3182D01*
G01X61849Y3002D01*
G01X61884Y2893D01*
G01X61922Y2819D01*
G01X61993Y2745D01*
G01X62067Y2710D01*
G01X62212Y2710D01*
G01X62285Y2745D01*
G01X62357Y2819D01*
G01X62395Y2893D01*
G01X62395Y3002D01*
G01X62212Y3002D02*
G01X62395Y3002D01*
G01X62633Y3474D02*
G01X62633Y2710D01*
G01X62633Y3474D02*
G01X63144Y2710D01*
G01X63144Y3474D02*
G01X63144Y2710D01*
G01X63383Y3474D02*
G01X63383Y2710D01*
G01X63383Y3474D02*
G01X63637Y3474D01*
G01X63746Y3439D01*
G01X63820Y3365D01*
G01X63855Y3291D01*
G01X63893Y3182D01*
G01X63893Y3002D01*
G01X63855Y2893D01*
G01X63820Y2819D01*
G01X63746Y2745D01*
G01X63637Y2710D01*
G01X63383Y2710D01*
G01X59999Y3474D02*
G01X59636Y3474D01*
G01X59598Y3147D01*
G01X59636Y3182D01*
G01X59745Y3220D01*
G01X59855Y3220D01*
G01X59961Y3182D01*
G01X60035Y3111D01*
G01X60071Y3002D01*
G01X60071Y2928D01*
G01X60035Y2819D01*
G01X59961Y2745D01*
G01X59855Y2710D01*
G01X59745Y2710D01*
G01X59636Y2745D01*
G01X59598Y2783D01*
G01X59563Y2854D01*
G01X60312Y3474D02*
G01X60601Y2710D01*
G01X60893Y3474D02*
G01X60601Y2710D01*
G01X56515Y3474D02*
G01X56515Y2710D01*
G01X56515Y3474D02*
G01X56842Y3474D01*
G01X56951Y3439D01*
G01X56987Y3401D01*
G01X57023Y3329D01*
G01X57023Y3256D01*
G01X56987Y3182D01*
G01X56951Y3147D01*
G01X56842Y3111D01*
G01X56515Y3111D01*
G01X56769Y3111D02*
G01X57023Y2710D01*
G01X57772Y3365D02*
G01X57701Y3439D01*
G01X57591Y3474D01*
G01X57444Y3474D01*
G01X57337Y3439D01*
G01X57264Y3365D01*
G01X57264Y3291D01*
G01X57299Y3220D01*
G01X57337Y3182D01*
G01X57409Y3147D01*
G01X57627Y3073D01*
G01X57701Y3037D01*
G01X57736Y3002D01*
G01X57772Y2928D01*
G01X57772Y2819D01*
G01X57701Y2745D01*
G01X57591Y2710D01*
G01X57444Y2710D01*
G01X57337Y2745D01*
G01X57264Y2819D01*
G01X58267Y3474D02*
G01X58267Y2710D01*
G01X58013Y3474D02*
G01X58521Y3474D01*
G01X40010Y57894D02*
G01X40114Y57947D01*
G01X40218Y58051D01*
G01X40269Y58153D01*
G01X40269Y58361D01*
G01X40218Y58465D01*
G01X40114Y58569D01*
G01X40010Y58623D01*
G01X39852Y58674D01*
G01X39593Y58674D01*
G01X39438Y58623D01*
G01X39334Y58569D01*
G01X39230Y58465D01*
G01X39179Y58361D01*
G01X39179Y58153D01*
G01X39230Y58051D01*
G01X39334Y57947D01*
G01X39438Y57894D01*
G01X39593Y57894D01*
G01X39593Y58153D02*
G01X39593Y57894D01*
G01X40269Y56146D02*
G01X40269Y56664D01*
G01X39801Y56718D01*
G01X39852Y56664D01*
G01X39905Y56509D01*
G01X39905Y56352D01*
G01X39852Y56197D01*
G01X39751Y56093D01*
G01X39593Y56042D01*
G01X39489Y56042D01*
G01X39334Y56093D01*
G01X39230Y56197D01*
G01X39179Y56352D01*
G01X39179Y56509D01*
G01X39230Y56664D01*
G01X39281Y56718D01*
G01X39385Y56769D01*
G01X40269Y55699D02*
G01X39179Y55283D01*
G01X40269Y54866D02*
G01X39179Y55283D01*
G01X70490Y57894D02*
G01X70594Y57947D01*
G01X70698Y58051D01*
G01X70749Y58153D01*
G01X70749Y58361D01*
G01X70698Y58465D01*
G01X70594Y58569D01*
G01X70490Y58623D01*
G01X70332Y58674D01*
G01X70073Y58674D01*
G01X69918Y58623D01*
G01X69814Y58569D01*
G01X69710Y58465D01*
G01X69659Y58361D01*
G01X69659Y58153D01*
G01X69710Y58051D01*
G01X69814Y57947D01*
G01X69918Y57894D01*
G01X70073Y57894D01*
G01X70073Y58153D02*
G01X70073Y57894D01*
G01X70749Y56146D02*
G01X70749Y56664D01*
G01X70281Y56718D01*
G01X70332Y56664D01*
G01X70385Y56509D01*
G01X70385Y56352D01*
G01X70332Y56197D01*
G01X70231Y56093D01*
G01X70073Y56042D01*
G01X69969Y56042D01*
G01X69814Y56093D01*
G01X69710Y56197D01*
G01X69659Y56352D01*
G01X69659Y56509D01*
G01X69710Y56664D01*
G01X69761Y56718D01*
G01X69865Y56769D01*
G01X70749Y55699D02*
G01X69659Y55283D01*
G01X70749Y54866D02*
G01X69659Y55283D01*
G01X38110Y51308D02*
G01X37020Y51308D01*
G01X38110Y51308D02*
G01X38110Y50944D01*
G01X38059Y50787D01*
G01X37955Y50685D01*
G01X37851Y50632D01*
G01X37693Y50581D01*
G01X37434Y50581D01*
G01X37279Y50632D01*
G01X37175Y50685D01*
G01X37071Y50787D01*
G01X37020Y50944D01*
G01X37020Y51308D01*
G01X38110Y49977D02*
G01X38059Y50134D01*
G01X37955Y50185D01*
G01X37851Y50185D01*
G01X37746Y50134D01*
G01X37693Y50030D01*
G01X37642Y49822D01*
G01X37592Y49667D01*
G01X37487Y49563D01*
G01X37383Y49509D01*
G01X37226Y49509D01*
G01X37122Y49563D01*
G01X37071Y49613D01*
G01X37020Y49771D01*
G01X37020Y49977D01*
G01X37071Y50134D01*
G01X37122Y50185D01*
G01X37226Y50238D01*
G01X37383Y50238D01*
G01X37487Y50185D01*
G01X37592Y50081D01*
G01X37642Y49926D01*
G01X37693Y49717D01*
G01X37746Y49613D01*
G01X37851Y49563D01*
G01X37955Y49563D01*
G01X38059Y49613D01*
G01X38110Y49771D01*
G01X38110Y49977D01*
G01X35443Y51308D02*
G01X34353Y51308D01*
G01X35443Y51308D02*
G01X35443Y50944D01*
G01X35392Y50787D01*
G01X35288Y50685D01*
G01X35184Y50632D01*
G01X35026Y50581D01*
G01X34767Y50581D01*
G01X34612Y50632D01*
G01X34508Y50685D01*
G01X34404Y50787D01*
G01X34353Y50944D01*
G01X34353Y51308D01*
G01X35079Y49563D02*
G01X34925Y49613D01*
G01X34820Y49717D01*
G01X34767Y49872D01*
G01X34767Y49926D01*
G01X34820Y50081D01*
G01X34925Y50185D01*
G01X35079Y50238D01*
G01X35130Y50238D01*
G01X35288Y50185D01*
G01X35392Y50081D01*
G01X35443Y49926D01*
G01X35443Y49872D01*
G01X35392Y49717D01*
G01X35288Y49613D01*
G01X35079Y49563D01*
G01X34820Y49563D01*
G01X34559Y49613D01*
G01X34404Y49717D01*
G01X34353Y49872D01*
G01X34353Y49977D01*
G01X34404Y50134D01*
G01X34508Y50185D01*
G01X32903Y51308D02*
G01X31813Y51308D01*
G01X32903Y51308D02*
G01X32903Y50944D01*
G01X32852Y50787D01*
G01X32748Y50685D01*
G01X32644Y50632D01*
G01X32486Y50581D01*
G01X32227Y50581D01*
G01X32072Y50632D01*
G01X31968Y50685D01*
G01X31864Y50787D01*
G01X31813Y50944D01*
G01X31813Y51308D01*
G01X32694Y50238D02*
G01X32748Y50134D01*
G01X32903Y49977D01*
G01X31813Y49977D01*
G01X32903Y49324D02*
G01X32852Y49479D01*
G01X32694Y49583D01*
G01X32435Y49634D01*
G01X32280Y49634D01*
G01X32019Y49583D01*
G01X31864Y49479D01*
G01X31813Y49324D01*
G01X31813Y49220D01*
G01X31864Y49062D01*
G01X32019Y48958D01*
G01X32280Y48907D01*
G01X32435Y48907D01*
G01X32694Y48958D01*
G01X32852Y49062D01*
G01X32903Y49220D01*
G01X32903Y49324D01*
G01X30363Y51308D02*
G01X29273Y51308D01*
G01X30363Y51308D02*
G01X30363Y50944D01*
G01X30312Y50787D01*
G01X30208Y50685D01*
G01X30104Y50632D01*
G01X29946Y50581D01*
G01X29687Y50581D01*
G01X29532Y50632D01*
G01X29428Y50685D01*
G01X29324Y50787D01*
G01X29273Y50944D01*
G01X29273Y51308D01*
G01X30154Y50238D02*
G01X30208Y50134D01*
G01X30363Y49977D01*
G01X29273Y49977D01*
G01X30154Y49634D02*
G01X30208Y49530D01*
G01X30363Y49375D01*
G01X29273Y49375D01*
G01X27823Y51308D02*
G01X26733Y51308D01*
G01X27823Y51308D02*
G01X27823Y50944D01*
G01X27772Y50787D01*
G01X27668Y50685D01*
G01X27564Y50632D01*
G01X27406Y50581D01*
G01X27147Y50581D01*
G01X26992Y50632D01*
G01X26888Y50685D01*
G01X26784Y50787D01*
G01X26733Y50944D01*
G01X26733Y51308D01*
G01X27614Y50238D02*
G01X27668Y50134D01*
G01X27823Y49977D01*
G01X26733Y49977D01*
G01X27564Y49583D02*
G01X27614Y49583D01*
G01X27719Y49530D01*
G01X27772Y49479D01*
G01X27823Y49375D01*
G01X27823Y49166D01*
G01X27772Y49062D01*
G01X27719Y49011D01*
G01X27614Y48958D01*
G01X27510Y48958D01*
G01X27406Y49011D01*
G01X27251Y49115D01*
G01X26733Y49634D01*
G01X26733Y48907D01*
G01X25283Y51308D02*
G01X24193Y51308D01*
G01X25283Y51308D02*
G01X25283Y50944D01*
G01X25232Y50787D01*
G01X25128Y50685D01*
G01X25024Y50632D01*
G01X24866Y50581D01*
G01X24607Y50581D01*
G01X24452Y50632D01*
G01X24348Y50685D01*
G01X24244Y50787D01*
G01X24193Y50944D01*
G01X24193Y51308D01*
G01X25074Y50238D02*
G01X25128Y50134D01*
G01X25283Y49977D01*
G01X24193Y49977D01*
G01X25283Y49530D02*
G01X25283Y48958D01*
G01X24866Y49270D01*
G01X24866Y49115D01*
G01X24815Y49011D01*
G01X24765Y48958D01*
G01X24607Y48907D01*
G01X24503Y48907D01*
G01X24348Y48958D01*
G01X24244Y49062D01*
G01X24193Y49220D01*
G01X24193Y49375D01*
G01X24244Y49530D01*
G01X24295Y49583D01*
G01X24399Y49634D01*
G01X22743Y51308D02*
G01X21653Y51308D01*
G01X22743Y51308D02*
G01X22743Y50944D01*
G01X22692Y50787D01*
G01X22588Y50685D01*
G01X22484Y50632D01*
G01X22326Y50581D01*
G01X22067Y50581D01*
G01X21912Y50632D01*
G01X21808Y50685D01*
G01X21704Y50787D01*
G01X21653Y50944D01*
G01X21653Y51308D01*
G01X22534Y50238D02*
G01X22588Y50134D01*
G01X22743Y49977D01*
G01X21653Y49977D01*
G01X22743Y49115D02*
G01X22016Y49634D01*
G01X22016Y48856D01*
G01X22743Y49115D02*
G01X21653Y49115D01*
G01X20203Y51308D02*
G01X19113Y51308D01*
G01X20203Y51308D02*
G01X20203Y50944D01*
G01X20152Y50787D01*
G01X20048Y50685D01*
G01X19944Y50632D01*
G01X19786Y50581D01*
G01X19527Y50581D01*
G01X19372Y50632D01*
G01X19268Y50685D01*
G01X19164Y50787D01*
G01X19113Y50944D01*
G01X19113Y51308D01*
G01X19994Y50238D02*
G01X20048Y50134D01*
G01X20203Y49977D01*
G01X19113Y49977D01*
G01X20203Y49011D02*
G01X20203Y49530D01*
G01X19735Y49583D01*
G01X19786Y49530D01*
G01X19839Y49375D01*
G01X19839Y49220D01*
G01X19786Y49062D01*
G01X19685Y48958D01*
G01X19527Y48907D01*
G01X19423Y48907D01*
G01X19268Y48958D01*
G01X19164Y49062D01*
G01X19113Y49220D01*
G01X19113Y49375D01*
G01X19164Y49530D01*
G01X19215Y49583D01*
G01X19319Y49634D01*
G01X68590Y51435D02*
G01X67500Y51435D01*
G01X68590Y51435D02*
G01X68590Y51071D01*
G01X68539Y50914D01*
G01X68435Y50812D01*
G01X68331Y50759D01*
G01X68173Y50708D01*
G01X67914Y50708D01*
G01X67759Y50759D01*
G01X67655Y50812D01*
G01X67551Y50914D01*
G01X67500Y51071D01*
G01X67500Y51435D01*
G01X68590Y50053D02*
G01X68539Y50208D01*
G01X68381Y50312D01*
G01X68122Y50365D01*
G01X67967Y50365D01*
G01X67706Y50312D01*
G01X67551Y50208D01*
G01X67500Y50053D01*
G01X67500Y49949D01*
G01X67551Y49794D01*
G01X67706Y49690D01*
G01X67967Y49636D01*
G01X68122Y49636D01*
G01X68381Y49690D01*
G01X68539Y49794D01*
G01X68590Y49949D01*
G01X68590Y50053D01*
G01X65923Y51435D02*
G01X64833Y51435D01*
G01X65923Y51435D02*
G01X65923Y51071D01*
G01X65872Y50914D01*
G01X65768Y50812D01*
G01X65664Y50759D01*
G01X65506Y50708D01*
G01X65247Y50708D01*
G01X65092Y50759D01*
G01X64988Y50812D01*
G01X64884Y50914D01*
G01X64833Y51071D01*
G01X64833Y51435D01*
G01X65714Y50365D02*
G01X65768Y50261D01*
G01X65923Y50104D01*
G01X64833Y50104D01*
G01X63383Y51435D02*
G01X62293Y51435D01*
G01X63383Y51435D02*
G01X63383Y51071D01*
G01X63332Y50914D01*
G01X63228Y50812D01*
G01X63124Y50759D01*
G01X62966Y50708D01*
G01X62707Y50708D01*
G01X62552Y50759D01*
G01X62448Y50812D01*
G01X62344Y50914D01*
G01X62293Y51071D01*
G01X62293Y51435D01*
G01X63124Y50312D02*
G01X63174Y50312D01*
G01X63279Y50261D01*
G01X63332Y50208D01*
G01X63383Y50104D01*
G01X63383Y49898D01*
G01X63332Y49794D01*
G01X63279Y49740D01*
G01X63174Y49690D01*
G01X63070Y49690D01*
G01X62966Y49740D01*
G01X62811Y49844D01*
G01X62293Y50365D01*
G01X62293Y49636D01*
G01X60843Y51435D02*
G01X59753Y51435D01*
G01X60843Y51435D02*
G01X60843Y51071D01*
G01X60792Y50914D01*
G01X60688Y50812D01*
G01X60584Y50759D01*
G01X60426Y50708D01*
G01X60167Y50708D01*
G01X60012Y50759D01*
G01X59908Y50812D01*
G01X59804Y50914D01*
G01X59753Y51071D01*
G01X59753Y51435D01*
G01X60843Y50261D02*
G01X60843Y49690D01*
G01X60426Y49999D01*
G01X60426Y49844D01*
G01X60375Y49740D01*
G01X60325Y49690D01*
G01X60167Y49636D01*
G01X60063Y49636D01*
G01X59908Y49690D01*
G01X59804Y49794D01*
G01X59753Y49949D01*
G01X59753Y50104D01*
G01X59804Y50261D01*
G01X59855Y50312D01*
G01X59959Y50365D01*
G01X58303Y51435D02*
G01X57213Y51435D01*
G01X58303Y51435D02*
G01X58303Y51071D01*
G01X58252Y50914D01*
G01X58148Y50812D01*
G01X58044Y50759D01*
G01X57886Y50708D01*
G01X57627Y50708D01*
G01X57472Y50759D01*
G01X57368Y50812D01*
G01X57264Y50914D01*
G01X57213Y51071D01*
G01X57213Y51435D01*
G01X58303Y49844D02*
G01X57576Y50365D01*
G01X57576Y49585D01*
G01X58303Y49844D02*
G01X57213Y49844D01*
G01X55763Y51435D02*
G01X54673Y51435D01*
G01X55763Y51435D02*
G01X55763Y51071D01*
G01X55712Y50914D01*
G01X55608Y50812D01*
G01X55504Y50759D01*
G01X55346Y50708D01*
G01X55087Y50708D01*
G01X54932Y50759D01*
G01X54828Y50812D01*
G01X54724Y50914D01*
G01X54673Y51071D01*
G01X54673Y51435D01*
G01X55763Y49740D02*
G01X55763Y50261D01*
G01X55295Y50312D01*
G01X55346Y50261D01*
G01X55399Y50104D01*
G01X55399Y49949D01*
G01X55346Y49794D01*
G01X55245Y49690D01*
G01X55087Y49636D01*
G01X54983Y49636D01*
G01X54828Y49690D01*
G01X54724Y49794D01*
G01X54673Y49949D01*
G01X54673Y50104D01*
G01X54724Y50261D01*
G01X54775Y50312D01*
G01X54879Y50365D01*
G01X53223Y51435D02*
G01X52133Y51435D01*
G01X53223Y51435D02*
G01X53223Y51071D01*
G01X53172Y50914D01*
G01X53068Y50812D01*
G01X52964Y50759D01*
G01X52806Y50708D01*
G01X52547Y50708D01*
G01X52392Y50759D01*
G01X52288Y50812D01*
G01X52184Y50914D01*
G01X52133Y51071D01*
G01X52133Y51435D01*
G01X53068Y49740D02*
G01X53172Y49794D01*
G01X53223Y49949D01*
G01X53223Y50053D01*
G01X53172Y50208D01*
G01X53014Y50312D01*
G01X52755Y50365D01*
G01X52496Y50365D01*
G01X52288Y50312D01*
G01X52184Y50208D01*
G01X52133Y50053D01*
G01X52133Y49999D01*
G01X52184Y49844D01*
G01X52288Y49740D01*
G01X52443Y49690D01*
G01X52496Y49690D01*
G01X52651Y49740D01*
G01X52755Y49844D01*
G01X52806Y49999D01*
G01X52806Y50053D01*
G01X52755Y50208D01*
G01X52651Y50312D01*
G01X52496Y50365D01*
G01X50683Y51435D02*
G01X49593Y51435D01*
G01X50683Y51435D02*
G01X50683Y51071D01*
G01X50632Y50914D01*
G01X50528Y50812D01*
G01X50424Y50759D01*
G01X50266Y50708D01*
G01X50007Y50708D01*
G01X49852Y50759D01*
G01X49748Y50812D01*
G01X49644Y50914D01*
G01X49593Y51071D01*
G01X49593Y51435D01*
G01X50683Y49636D02*
G01X49593Y50157D01*
G01X50683Y50365D02*
G01X50683Y49636D01*
G54D31*
G01X40269Y25781D02*
G01X39179Y25781D01*
G01X40269Y25781D02*
G01X40269Y25313D01*
G01X40218Y25158D01*
G01X40165Y25105D01*
G01X40060Y25054D01*
G01X39905Y25054D01*
G01X39801Y25105D01*
G01X39751Y25158D01*
G01X39697Y25313D01*
G01X39697Y25781D01*
G01X39438Y24658D02*
G01X39385Y24711D01*
G01X39334Y24658D01*
G01X39385Y24607D01*
G01X39438Y24658D01*
G01X40010Y23484D02*
G01X40114Y23535D01*
G01X40218Y23639D01*
G01X40269Y23743D01*
G01X40269Y23952D01*
G01X40218Y24056D01*
G01X40114Y24160D01*
G01X40010Y24211D01*
G01X39852Y24264D01*
G01X39593Y24264D01*
G01X39438Y24211D01*
G01X39334Y24160D01*
G01X39230Y24056D01*
G01X39179Y23952D01*
G01X39179Y23743D01*
G01X39230Y23639D01*
G01X39334Y23535D01*
G01X39438Y23484D01*
G01X70749Y25654D02*
G01X69659Y25654D01*
G01X70749Y25654D02*
G01X70749Y25186D01*
G01X70698Y25031D01*
G01X70645Y24978D01*
G01X70540Y24927D01*
G01X70385Y24927D01*
G01X70281Y24978D01*
G01X70231Y25031D01*
G01X70177Y25186D01*
G01X70177Y25654D01*
G01X69918Y24531D02*
G01X69865Y24584D01*
G01X69814Y24531D01*
G01X69865Y24480D01*
G01X69918Y24531D01*
G01X70749Y23721D02*
G01X69659Y24137D01*
G01X70749Y23721D02*
G01X69659Y23304D01*
G01X70022Y23980D02*
G01X70022Y23461D01*
G01X40269Y54229D02*
G01X39179Y54229D01*
G01X40269Y54229D02*
G01X40269Y53761D01*
G01X40218Y53606D01*
G01X40165Y53553D01*
G01X40060Y53502D01*
G01X39905Y53502D01*
G01X39801Y53553D01*
G01X39751Y53606D01*
G01X39697Y53761D01*
G01X39697Y54229D01*
G01X39438Y53106D02*
G01X39385Y53159D01*
G01X39334Y53106D01*
G01X39385Y53055D01*
G01X39438Y53106D01*
G01X40269Y52712D02*
G01X39179Y52712D01*
G01X40269Y52712D02*
G01X40269Y52349D01*
G01X40218Y52191D01*
G01X40114Y52087D01*
G01X40010Y52036D01*
G01X39852Y51983D01*
G01X39593Y51983D01*
G01X39438Y52036D01*
G01X39334Y52087D01*
G01X39230Y52191D01*
G01X39179Y52349D01*
G01X39179Y52712D01*
G01X42672Y51445D02*
G01X42672Y50355D01*
G01X42672Y51445D02*
G01X43139Y51445D01*
G01X43294Y51394D01*
G01X43347Y51341D01*
G01X43398Y51236D01*
G01X43398Y51132D01*
G01X43347Y51028D01*
G01X43294Y50977D01*
G01X43139Y50927D01*
G01X42672Y50927D01*
G01X43035Y50927D02*
G01X43398Y50355D01*
G01X44470Y51290D02*
G01X44366Y51394D01*
G01X44208Y51445D01*
G01X44002Y51445D01*
G01X43845Y51394D01*
G01X43741Y51290D01*
G01X43741Y51186D01*
G01X43794Y51081D01*
G01X43845Y51028D01*
G01X43949Y50977D01*
G01X44262Y50873D01*
G01X44366Y50822D01*
G01X44416Y50769D01*
G01X44470Y50665D01*
G01X44470Y50510D01*
G01X44366Y50406D01*
G01X44208Y50355D01*
G01X44002Y50355D01*
G01X43845Y50406D01*
G01X43741Y50510D01*
G01X45176Y51445D02*
G01X45176Y50355D01*
G01X44813Y51445D02*
G01X45539Y51445D01*
G01X16499Y8382D02*
G01X17589Y8382D01*
G01X16758Y8775D02*
G01X16708Y8775D01*
G01X16603Y8829D01*
G01X16550Y8879D01*
G01X16499Y8983D01*
G01X16499Y9192D01*
G01X16550Y9296D01*
G01X16603Y9347D01*
G01X16708Y9400D01*
G01X16812Y9400D01*
G01X16916Y9347D01*
G01X17071Y9245D01*
G01X17589Y8724D01*
G01X17589Y9451D01*
G01X16758Y10574D02*
G01X16654Y10523D01*
G01X16550Y10419D01*
G01X16499Y10314D01*
G01X16499Y10106D01*
G01X16550Y10002D01*
G01X16654Y9898D01*
G01X16758Y9847D01*
G01X16916Y9794D01*
G01X17175Y9794D01*
G01X17330Y9847D01*
G01X17434Y9898D01*
G01X17538Y10002D01*
G01X17589Y10106D01*
G01X17589Y10314D01*
G01X17538Y10419D01*
G01X17434Y10523D01*
G01X17330Y10574D01*
G01X42580Y23124D02*
G01X42164Y22034D01*
G01X42580Y23124D02*
G01X42994Y22034D01*
G01X42318Y22397D02*
G01X42839Y22397D01*
G01X43337Y23124D02*
G01X43337Y22034D01*
G01X43337Y23124D02*
G01X43804Y23124D01*
G01X43962Y23073D01*
G01X44013Y23020D01*
G01X44066Y22915D01*
G01X44066Y22811D01*
G01X44013Y22707D01*
G01X43962Y22656D01*
G01X43804Y22606D01*
G01X43337Y22606D01*
G01X43700Y22606D02*
G01X44066Y22034D01*
G01X44409Y23124D02*
G01X44409Y22034D01*
G01X44409Y23124D02*
G01X45085Y23124D01*
G01X44409Y22606D02*
G01X44823Y22606D01*
G01X44409Y22034D02*
G01X45085Y22034D01*
G01X45427Y23124D02*
G01X45427Y22034D01*
G01X45427Y23124D02*
G01X46101Y23124D01*
G01X45427Y22606D02*
G01X45841Y22606D01*
G01X32385Y44079D02*
G01X33111Y42989D01*
G01X33111Y44079D02*
G01X32384Y42989D01*
G01X33454Y43870D02*
G01X33558Y43924D01*
G01X33715Y44079D01*
G01X33715Y42989D01*
G01X70749Y54229D02*
G01X69659Y54229D01*
G01X70749Y54229D02*
G01X70749Y53761D01*
G01X70698Y53606D01*
G01X70645Y53553D01*
G01X70540Y53502D01*
G01X70385Y53502D01*
G01X70281Y53553D01*
G01X70231Y53606D01*
G01X70177Y53761D01*
G01X70177Y54229D01*
G01X69918Y53106D02*
G01X69865Y53159D01*
G01X69814Y53106D01*
G01X69865Y53055D01*
G01X69918Y53106D01*
G01X70749Y52712D02*
G01X69659Y52712D01*
G01X70749Y52712D02*
G01X70749Y52245D01*
G01X70698Y52087D01*
G01X70645Y52036D01*
G01X70540Y51983D01*
G01X70436Y51983D01*
G01X70332Y52036D01*
G01X70281Y52087D01*
G01X70231Y52245D01*
G01X70231Y52712D02*
G01X70231Y52245D01*
G01X70177Y52087D01*
G01X70126Y52036D01*
G01X70022Y51983D01*
G01X69865Y51983D01*
G01X69761Y52036D01*
G01X69710Y52087D01*
G01X69659Y52245D01*
G01X69659Y52712D01*
G01X24511Y74178D02*
G01X24511Y73398D01*
G01X24561Y73243D01*
G01X24665Y73139D01*
G01X24823Y73088D01*
G01X24927Y73088D01*
G01X25082Y73139D01*
G01X25186Y73243D01*
G01X25237Y73398D01*
G01X25237Y74178D01*
G01X25996Y74178D02*
G01X25580Y73088D01*
G01X25996Y74178D02*
G01X26413Y73088D01*
G01X25737Y73451D02*
G01X26255Y73451D01*
G01X26756Y74178D02*
G01X26756Y73088D01*
G01X26756Y74178D02*
G01X27223Y74178D01*
G01X27378Y74127D01*
G01X27432Y74074D01*
G01X27482Y73969D01*
G01X27482Y73865D01*
G01X27432Y73761D01*
G01X27378Y73710D01*
G01X27223Y73660D01*
G01X26756Y73660D01*
G01X27119Y73660D02*
G01X27482Y73088D01*
G01X28188Y74178D02*
G01X28188Y73088D01*
G01X27825Y74178D02*
G01X28552Y74178D01*
G01X4572Y16901D02*
G01X4572Y16121D01*
G01X4622Y15966D01*
G01X4726Y15862D01*
G01X4884Y15811D01*
G01X4988Y15811D01*
G01X5143Y15862D01*
G01X5247Y15966D01*
G01X5298Y16121D01*
G01X5298Y16901D01*
G01X5745Y16901D02*
G01X6316Y16901D01*
G01X6007Y16484D01*
G01X6162Y16484D01*
G01X6266Y16433D01*
G01X6316Y16383D01*
G01X6370Y16225D01*
G01X6370Y16121D01*
G01X6316Y15966D01*
G01X6212Y15862D01*
G01X6057Y15811D01*
G01X5902Y15811D01*
G01X5745Y15862D01*
G01X5694Y15913D01*
G01X5641Y16017D01*
G01X4208Y56012D02*
G01X4155Y56116D01*
G01X4051Y56220D01*
G01X3949Y56271D01*
G01X3741Y56271D01*
G01X3637Y56220D01*
G01X3533Y56116D01*
G01X3479Y56012D01*
G01X3429Y55854D01*
G01X3429Y55595D01*
G01X3479Y55440D01*
G01X3533Y55336D01*
G01X3637Y55232D01*
G01X3741Y55181D01*
G01X3949Y55181D01*
G01X4051Y55232D01*
G01X4155Y55336D01*
G01X4208Y55440D01*
G01X4551Y56062D02*
G01X4655Y56116D01*
G01X4810Y56271D01*
G01X4810Y55181D01*
G01X46360Y63736D02*
G01X46464Y63789D01*
G01X46568Y63893D01*
G01X46619Y63995D01*
G01X46619Y64203D01*
G01X46568Y64307D01*
G01X46464Y64411D01*
G01X46360Y64465D01*
G01X46202Y64516D01*
G01X45943Y64516D01*
G01X45788Y64465D01*
G01X45684Y64411D01*
G01X45580Y64307D01*
G01X45529Y64203D01*
G01X45529Y63995D01*
G01X45580Y63893D01*
G01X45684Y63789D01*
G01X45788Y63736D01*
G01X46255Y62717D02*
G01X46101Y62771D01*
G01X45996Y62875D01*
G01X45943Y63030D01*
G01X45943Y63080D01*
G01X45996Y63238D01*
G01X46101Y63342D01*
G01X46255Y63393D01*
G01X46306Y63393D01*
G01X46464Y63342D01*
G01X46568Y63238D01*
G01X46619Y63080D01*
G01X46619Y63030D01*
G01X46568Y62875D01*
G01X46464Y62771D01*
G01X46255Y62717D01*
G01X45996Y62717D01*
G01X45735Y62771D01*
G01X45580Y62875D01*
G01X45529Y63030D01*
G01X45529Y63134D01*
G01X45580Y63289D01*
G01X45684Y63342D01*
G01X3954Y51821D02*
G01X3901Y51925D01*
G01X3797Y52029D01*
G01X3695Y52080D01*
G01X3487Y52080D01*
G01X3383Y52029D01*
G01X3279Y51925D01*
G01X3225Y51821D01*
G01X3175Y51663D01*
G01X3175Y51404D01*
G01X3225Y51249D01*
G01X3279Y51145D01*
G01X3383Y51041D01*
G01X3487Y50990D01*
G01X3695Y50990D01*
G01X3797Y51041D01*
G01X3901Y51145D01*
G01X3954Y51249D01*
G01X4348Y51821D02*
G01X4348Y51871D01*
G01X4401Y51976D01*
G01X4452Y52029D01*
G01X4556Y52080D01*
G01X4765Y52080D01*
G01X4869Y52029D01*
G01X4919Y51976D01*
G01X4973Y51871D01*
G01X4973Y51767D01*
G01X4919Y51663D01*
G01X4815Y51508D01*
G01X4297Y50990D01*
G01X5024Y50990D01*
G01X4081Y33660D02*
G01X4028Y33764D01*
G01X3924Y33868D01*
G01X3822Y33919D01*
G01X3614Y33919D01*
G01X3510Y33868D01*
G01X3406Y33764D01*
G01X3352Y33660D01*
G01X3302Y33502D01*
G01X3302Y33243D01*
G01X3352Y33088D01*
G01X3406Y32984D01*
G01X3510Y32880D01*
G01X3614Y32829D01*
G01X3822Y32829D01*
G01X3924Y32880D01*
G01X4028Y32984D01*
G01X4081Y33088D01*
G01X4528Y33919D02*
G01X5100Y33919D01*
G01X4787Y33502D01*
G01X4942Y33502D01*
G01X5046Y33451D01*
G01X5100Y33401D01*
G01X5151Y33243D01*
G01X5151Y33139D01*
G01X5100Y32984D01*
G01X4996Y32880D01*
G01X4838Y32829D01*
G01X4683Y32829D01*
G01X4528Y32880D01*
G01X4475Y32931D01*
G01X4424Y33035D01*
G01X3954Y37851D02*
G01X3901Y37955D01*
G01X3797Y38059D01*
G01X3695Y38110D01*
G01X3487Y38110D01*
G01X3383Y38059D01*
G01X3279Y37955D01*
G01X3225Y37851D01*
G01X3175Y37693D01*
G01X3175Y37434D01*
G01X3225Y37279D01*
G01X3279Y37175D01*
G01X3383Y37071D01*
G01X3487Y37020D01*
G01X3695Y37020D01*
G01X3797Y37071D01*
G01X3901Y37175D01*
G01X3954Y37279D01*
G01X4815Y38110D02*
G01X4297Y37383D01*
G01X5077Y37383D01*
G01X4815Y38110D02*
G01X4815Y37020D01*
G01X4208Y25278D02*
G01X4155Y25382D01*
G01X4051Y25486D01*
G01X3949Y25537D01*
G01X3741Y25537D01*
G01X3637Y25486D01*
G01X3533Y25382D01*
G01X3479Y25278D01*
G01X3429Y25120D01*
G01X3429Y24861D01*
G01X3479Y24706D01*
G01X3533Y24602D01*
G01X3637Y24498D01*
G01X3741Y24447D01*
G01X3949Y24447D01*
G01X4051Y24498D01*
G01X4155Y24602D01*
G01X4208Y24706D01*
G01X5278Y25537D02*
G01X4759Y24447D01*
G01X4551Y25537D02*
G01X5278Y25537D01*
G01X23235Y38879D02*
G01X23131Y38826D01*
G01X23027Y38722D01*
G01X22976Y38620D01*
G01X22976Y38412D01*
G01X23027Y38308D01*
G01X23131Y38204D01*
G01X23235Y38150D01*
G01X23393Y38100D01*
G01X23652Y38100D01*
G01X23807Y38150D01*
G01X23911Y38204D01*
G01X24015Y38308D01*
G01X24066Y38412D01*
G01X24066Y38620D01*
G01X24015Y38722D01*
G01X23911Y38826D01*
G01X23807Y38879D01*
G01X23185Y39222D02*
G01X23131Y39326D01*
G01X22976Y39481D01*
G01X24066Y39481D01*
G01X23185Y39824D02*
G01X23131Y39928D01*
G01X22976Y40083D01*
G01X24066Y40083D01*
G01X4081Y29469D02*
G01X4028Y29573D01*
G01X3924Y29677D01*
G01X3822Y29728D01*
G01X3614Y29728D01*
G01X3510Y29677D01*
G01X3406Y29573D01*
G01X3352Y29469D01*
G01X3302Y29311D01*
G01X3302Y29052D01*
G01X3352Y28897D01*
G01X3406Y28793D01*
G01X3510Y28689D01*
G01X3614Y28638D01*
G01X3822Y28638D01*
G01X3924Y28689D01*
G01X4028Y28793D01*
G01X4081Y28897D01*
G01X4683Y29728D02*
G01X4528Y29677D01*
G01X4475Y29573D01*
G01X4475Y29469D01*
G01X4528Y29364D01*
G01X4632Y29311D01*
G01X4838Y29260D01*
G01X4996Y29210D01*
G01X5100Y29105D01*
G01X5151Y29001D01*
G01X5151Y28844D01*
G01X5100Y28740D01*
G01X5046Y28689D01*
G01X4892Y28638D01*
G01X4683Y28638D01*
G01X4528Y28689D01*
G01X4475Y28740D01*
G01X4424Y28844D01*
G01X4424Y29001D01*
G01X4475Y29105D01*
G01X4579Y29210D01*
G01X4737Y29260D01*
G01X4942Y29311D01*
G01X5046Y29364D01*
G01X5100Y29469D01*
G01X5100Y29573D01*
G01X5046Y29677D01*
G01X4892Y29728D01*
G01X4683Y29728D01*
G01X7487Y3700D02*
G01X7383Y3647D01*
G01X7279Y3543D01*
G01X7228Y3441D01*
G01X7228Y3233D01*
G01X7279Y3129D01*
G01X7383Y3025D01*
G01X7487Y2971D01*
G01X7645Y2921D01*
G01X7904Y2921D01*
G01X8059Y2971D01*
G01X8163Y3025D01*
G01X8267Y3129D01*
G01X8318Y3233D01*
G01X8318Y3441D01*
G01X8267Y3543D01*
G01X8163Y3647D01*
G01X8059Y3700D01*
G01X7228Y4665D02*
G01X7228Y4147D01*
G01X7696Y4094D01*
G01X7645Y4147D01*
G01X7592Y4302D01*
G01X7592Y4457D01*
G01X7645Y4615D01*
G01X7747Y4719D01*
G01X7904Y4770D01*
G01X8008Y4770D01*
G01X8163Y4719D01*
G01X8267Y4615D01*
G01X8318Y4457D01*
G01X8318Y4302D01*
G01X8267Y4147D01*
G01X8216Y4094D01*
G01X8112Y4043D01*
G01X11678Y3700D02*
G01X11574Y3647D01*
G01X11470Y3543D01*
G01X11419Y3441D01*
G01X11419Y3233D01*
G01X11470Y3129D01*
G01X11574Y3025D01*
G01X11678Y2971D01*
G01X11836Y2921D01*
G01X12095Y2921D01*
G01X12250Y2971D01*
G01X12354Y3025D01*
G01X12458Y3129D01*
G01X12509Y3233D01*
G01X12509Y3441D01*
G01X12458Y3543D01*
G01X12354Y3647D01*
G01X12250Y3700D01*
G01X11574Y4665D02*
G01X11470Y4615D01*
G01X11419Y4457D01*
G01X11419Y4356D01*
G01X11470Y4198D01*
G01X11628Y4094D01*
G01X11887Y4043D01*
G01X12146Y4043D01*
G01X12354Y4094D01*
G01X12458Y4198D01*
G01X12509Y4356D01*
G01X12509Y4406D01*
G01X12458Y4561D01*
G01X12354Y4665D01*
G01X12199Y4719D01*
G01X12146Y4719D01*
G01X11991Y4665D01*
G01X11887Y4561D01*
G01X11836Y4406D01*
G01X11836Y4356D01*
G01X11887Y4198D01*
G01X11991Y4094D01*
G01X12146Y4043D01*
G01X47503Y41511D02*
G01X47607Y41564D01*
G01X47711Y41668D01*
G01X47762Y41770D01*
G01X47762Y41978D01*
G01X47711Y42082D01*
G01X47607Y42186D01*
G01X47503Y42240D01*
G01X47345Y42291D01*
G01X47086Y42291D01*
G01X46931Y42240D01*
G01X46827Y42186D01*
G01X46723Y42082D01*
G01X46672Y41978D01*
G01X46672Y41770D01*
G01X46723Y41668D01*
G01X46827Y41564D01*
G01X46931Y41511D01*
G01X47553Y41168D02*
G01X47607Y41064D01*
G01X47762Y40909D01*
G01X46672Y40909D01*
G01X47503Y40513D02*
G01X47553Y40513D01*
G01X47658Y40462D01*
G01X47711Y40411D01*
G01X47762Y40307D01*
G01X47762Y40098D01*
G01X47711Y39994D01*
G01X47658Y39941D01*
G01X47553Y39890D01*
G01X47449Y39890D01*
G01X47345Y39941D01*
G01X47190Y40045D01*
G01X46672Y40566D01*
G01X46672Y39839D01*
G01X42296Y39606D02*
G01X42400Y39659D01*
G01X42504Y39763D01*
G01X42555Y39865D01*
G01X42555Y40073D01*
G01X42504Y40177D01*
G01X42400Y40281D01*
G01X42296Y40335D01*
G01X42138Y40386D01*
G01X41879Y40386D01*
G01X41724Y40335D01*
G01X41620Y40281D01*
G01X41516Y40177D01*
G01X41465Y40073D01*
G01X41465Y39865D01*
G01X41516Y39763D01*
G01X41620Y39659D01*
G01X41724Y39606D01*
G01X42346Y39263D02*
G01X42400Y39159D01*
G01X42555Y39004D01*
G01X41465Y39004D01*
G01X42555Y38348D02*
G01X42504Y38506D01*
G01X42346Y38608D01*
G01X42087Y38661D01*
G01X41932Y38661D01*
G01X41671Y38608D01*
G01X41516Y38506D01*
G01X41465Y38348D01*
G01X41465Y38244D01*
G01X41516Y38089D01*
G01X41671Y37985D01*
G01X41932Y37934D01*
G01X42087Y37934D01*
G01X42346Y37985D01*
G01X42504Y38089D01*
G01X42555Y38244D01*
G01X42555Y38348D01*
G01X4699Y43317D02*
G01X4699Y42537D01*
G01X4749Y42382D01*
G01X4853Y42278D01*
G01X5011Y42227D01*
G01X5115Y42227D01*
G01X5270Y42278D01*
G01X5374Y42382D01*
G01X5425Y42537D01*
G01X5425Y43317D01*
G01X5821Y43058D02*
G01X5821Y43108D01*
G01X5872Y43213D01*
G01X5925Y43266D01*
G01X6029Y43317D01*
G01X6235Y43317D01*
G01X6339Y43266D01*
G01X6393Y43213D01*
G01X6443Y43108D01*
G01X6443Y43004D01*
G01X6393Y42900D01*
G01X6289Y42745D01*
G01X5768Y42227D01*
G01X6497Y42227D01*
G01X71765Y36957D02*
G01X70985Y36957D01*
G01X70830Y36906D01*
G01X70726Y36802D01*
G01X70675Y36644D01*
G01X70675Y36540D01*
G01X70726Y36385D01*
G01X70830Y36281D01*
G01X70985Y36230D01*
G01X71765Y36230D01*
G01X71556Y35887D02*
G01X71610Y35783D01*
G01X71765Y35626D01*
G01X70675Y35626D01*
G01X66918Y63258D02*
G01X67749Y63258D01*
G01X67906Y63205D01*
G01X67957Y63154D01*
G01X68008Y63050D01*
G01X68008Y62946D01*
G01X67957Y62842D01*
G01X67906Y62788D01*
G01X67749Y62738D01*
G01X67645Y62738D01*
G01X66918Y63601D02*
G01X68008Y63601D01*
G01X66918Y63601D02*
G01X68008Y64015D01*
G01X66918Y64432D02*
G01X68008Y64015D01*
G01X66918Y64432D02*
G01X68008Y64432D01*
G01X66918Y64775D02*
G01X68008Y64775D01*
G01X66918Y64775D02*
G01X66918Y65242D01*
G01X66969Y65397D01*
G01X67022Y65450D01*
G01X67127Y65501D01*
G01X67282Y65501D01*
G01X67386Y65450D01*
G01X67437Y65397D01*
G01X67490Y65242D01*
G01X67490Y64775D01*
G01X67541Y65844D02*
G01X67541Y66779D01*
G01X66918Y67122D02*
G01X68008Y67122D01*
G01X66918Y67464D02*
G01X68008Y67464D01*
G01X66918Y67464D02*
G01X66918Y67932D01*
G01X66969Y68089D01*
G01X67022Y68140D01*
G01X67127Y68193D01*
G01X67231Y68193D01*
G01X67335Y68140D01*
G01X67386Y68089D01*
G01X67437Y67932D01*
G01X67437Y67464D01*
G01X67437Y67830D02*
G01X68008Y68193D01*
G01X66918Y68846D02*
G01X66969Y68745D01*
G01X67073Y68640D01*
G01X67177Y68587D01*
G01X67335Y68536D01*
G01X67594Y68536D01*
G01X67749Y68587D01*
G01X67853Y68640D01*
G01X67957Y68745D01*
G01X68008Y68846D01*
G01X68008Y69054D01*
G01X67957Y69159D01*
G01X67853Y69263D01*
G01X67749Y69316D01*
G01X67594Y69367D01*
G01X67335Y69367D01*
G01X67177Y69316D01*
G01X67073Y69263D01*
G01X66969Y69159D01*
G01X66918Y69054D01*
G01X66918Y68846D01*
G01X67802Y69004D02*
G01X68112Y69316D01*
G01X28079Y66558D02*
G01X28079Y65727D01*
G01X28026Y65570D01*
G01X27975Y65519D01*
G01X27871Y65468D01*
G01X27767Y65468D01*
G01X27663Y65519D01*
G01X27609Y65570D01*
G01X27559Y65727D01*
G01X27559Y65831D01*
G01X28422Y66558D02*
G01X28422Y65468D01*
G01X28422Y66558D02*
G01X28836Y65468D01*
G01X29253Y66558D02*
G01X28836Y65468D01*
G01X29253Y66558D02*
G01X29253Y65468D01*
G01X29596Y66558D02*
G01X29596Y65468D01*
G01X29596Y66558D02*
G01X30063Y66558D01*
G01X30218Y66507D01*
G01X30271Y66454D01*
G01X30322Y66349D01*
G01X30322Y66194D01*
G01X30271Y66090D01*
G01X30218Y66040D01*
G01X30063Y65986D01*
G01X29596Y65986D01*
G01X30665Y65935D02*
G01X31600Y65935D01*
G01X32722Y66299D02*
G01X32672Y66403D01*
G01X32567Y66507D01*
G01X32463Y66558D01*
G01X32255Y66558D01*
G01X32151Y66507D01*
G01X32047Y66403D01*
G01X31996Y66299D01*
G01X31943Y66141D01*
G01X31943Y65882D01*
G01X31996Y65727D01*
G01X32047Y65623D01*
G01X32151Y65519D01*
G01X32255Y65468D01*
G01X32463Y65468D01*
G01X32567Y65519D01*
G01X32672Y65623D01*
G01X32722Y65727D01*
G01X32722Y65882D01*
G01X32463Y65882D02*
G01X32722Y65882D01*
G01X33065Y66558D02*
G01X33065Y65468D01*
G01X33065Y66558D02*
G01X33794Y65468D01*
G01X33794Y66558D02*
G01X33794Y65468D01*
G01X34137Y66558D02*
G01X34137Y65468D01*
G01X34137Y66558D02*
G01X34500Y66558D01*
G01X34655Y66507D01*
G01X34759Y66403D01*
G01X34810Y66299D01*
G01X34864Y66141D01*
G01X34864Y65882D01*
G01X34810Y65727D01*
G01X34759Y65623D01*
G01X34655Y65519D01*
G01X34500Y65468D01*
G01X34137Y65468D01*
G01X48999Y5852D02*
G01X49570Y5852D01*
G01X49258Y5435D01*
G01X49415Y5435D01*
G01X49517Y5384D01*
G01X49570Y5334D01*
G01X49621Y5176D01*
G01X49621Y5072D01*
G01X49570Y4917D01*
G01X49466Y4813D01*
G01X49311Y4762D01*
G01X49154Y4762D01*
G01X48999Y4813D01*
G01X48945Y4864D01*
G01X48895Y4968D01*
G01X49964Y5852D02*
G01X50380Y4762D01*
G01X50797Y5852D02*
G01X50380Y4762D01*
G01X51244Y5852D02*
G01X51816Y5852D01*
G01X51503Y5435D01*
G01X51658Y5435D01*
G01X51762Y5384D01*
G01X51816Y5334D01*
G01X51866Y5176D01*
G01X51866Y5072D01*
G01X51816Y4917D01*
G01X51711Y4813D01*
G01X51554Y4762D01*
G01X51399Y4762D01*
G01X51244Y4813D01*
G01X51191Y4864D01*
G01X51140Y4968D01*
G01X12308Y36830D02*
G01X13398Y36830D01*
G01X13398Y36830D02*
G01X13398Y37452D01*
G01X12308Y37795D02*
G01X13398Y37795D01*
G01X12308Y37795D02*
G01X12308Y38470D01*
G01X12827Y37795D02*
G01X12827Y38211D01*
G01X13398Y37795D02*
G01X13398Y38470D01*
G01X12308Y38813D02*
G01X13398Y38813D01*
G01X12308Y38813D02*
G01X12308Y39179D01*
G01X12359Y39334D01*
G01X12463Y39438D01*
G01X12567Y39489D01*
G01X12725Y39542D01*
G01X12984Y39542D01*
G01X13139Y39489D01*
G01X13243Y39438D01*
G01X13347Y39334D01*
G01X13398Y39179D01*
G01X13398Y38813D01*
G01X12308Y39989D02*
G01X12308Y40561D01*
G01X12725Y40248D01*
G01X12725Y40403D01*
G01X12776Y40507D01*
G01X12827Y40561D01*
G01X12984Y40612D01*
G01X13088Y40612D01*
G01X13243Y40561D01*
G01X13347Y40457D01*
G01X13398Y40299D01*
G01X13398Y40144D01*
G01X13347Y39989D01*
G01X13296Y39936D01*
G01X13192Y39885D01*
G01X9641Y12446D02*
G01X10731Y12446D01*
G01X10731Y12446D02*
G01X10731Y13068D01*
G01X9641Y13411D02*
G01X10731Y13411D01*
G01X9641Y13411D02*
G01X9641Y14086D01*
G01X10160Y13411D02*
G01X10160Y13827D01*
G01X10731Y13411D02*
G01X10731Y14086D01*
G01X9641Y14429D02*
G01X10731Y14429D01*
G01X9641Y14429D02*
G01X9641Y14795D01*
G01X9692Y14950D01*
G01X9796Y15054D01*
G01X9900Y15105D01*
G01X10058Y15158D01*
G01X10317Y15158D01*
G01X10472Y15105D01*
G01X10576Y15054D01*
G01X10680Y14950D01*
G01X10731Y14795D01*
G01X10731Y14429D01*
G01X9900Y15552D02*
G01X9850Y15552D01*
G01X9745Y15605D01*
G01X9692Y15656D01*
G01X9641Y15760D01*
G01X9641Y15968D01*
G01X9692Y16073D01*
G01X9745Y16123D01*
G01X9850Y16177D01*
G01X9954Y16177D01*
G01X10058Y16123D01*
G01X10213Y16019D01*
G01X10731Y15501D01*
G01X10731Y16228D01*
G01X9641Y19050D02*
G01X10731Y19050D01*
G01X10731Y19050D02*
G01X10731Y19672D01*
G01X9641Y20015D02*
G01X10731Y20015D01*
G01X9641Y20015D02*
G01X9641Y20690D01*
G01X10160Y20015D02*
G01X10160Y20431D01*
G01X10731Y20015D02*
G01X10731Y20690D01*
G01X9641Y21033D02*
G01X10731Y21033D01*
G01X9641Y21033D02*
G01X9641Y21399D01*
G01X9692Y21554D01*
G01X9796Y21658D01*
G01X9900Y21709D01*
G01X10058Y21762D01*
G01X10317Y21762D01*
G01X10472Y21709D01*
G01X10576Y21658D01*
G01X10680Y21554D01*
G01X10731Y21399D01*
G01X10731Y21033D01*
G01X9850Y22105D02*
G01X9796Y22209D01*
G01X9641Y22364D01*
G01X10731Y22364D01*
G01X13208Y52080D02*
G01X13208Y50990D01*
G01X13208Y52080D02*
G01X13675Y52080D01*
G01X13830Y52029D01*
G01X13883Y51976D01*
G01X13934Y51871D01*
G01X13934Y51767D01*
G01X13883Y51663D01*
G01X13830Y51612D01*
G01X13675Y51562D01*
G01X13208Y51562D01*
G01X13571Y51562D02*
G01X13934Y50990D01*
G01X14381Y52080D02*
G01X14952Y52080D01*
G01X14643Y51663D01*
G01X14798Y51663D01*
G01X14902Y51612D01*
G01X14952Y51562D01*
G01X15006Y51404D01*
G01X15006Y51300D01*
G01X14952Y51145D01*
G01X14848Y51041D01*
G01X14693Y50990D01*
G01X14538Y50990D01*
G01X14381Y51041D01*
G01X14330Y51092D01*
G01X14277Y51196D01*
G54D30*
G01X46618Y59563D02*
G01X45528Y59563D01*
G01X46618Y59563D02*
G01X46618Y59095D01*
G01X46567Y58940D01*
G01X46514Y58887D01*
G01X46412Y58836D01*
G01X46308Y58836D01*
G01X46204Y58887D01*
G01X46151Y58940D01*
G01X46100Y59095D01*
G01X46100Y59563D01*
G01X46100Y59199D02*
G01X45528Y58836D01*
G01X46618Y57972D02*
G01X45891Y58493D01*
G01X45891Y57713D01*
G01X46618Y57972D02*
G01X45528Y57972D01*
G54D31*
G01X8509Y28077D02*
G01X8509Y26987D01*
G01X8509Y28077D02*
G01X8976Y28077D01*
G01X9131Y28026D01*
G01X9184Y27973D01*
G01X9235Y27868D01*
G01X9235Y27764D01*
G01X9184Y27660D01*
G01X9131Y27609D01*
G01X8976Y27559D01*
G01X8509Y27559D01*
G01X8872Y27559D02*
G01X9235Y26987D01*
G01X9578Y27868D02*
G01X9682Y27922D01*
G01X9839Y28077D01*
G01X9839Y26987D01*
G01X9641Y8128D02*
G01X10731Y8128D01*
G01X9641Y8128D02*
G01X9641Y8595D01*
G01X9692Y8750D01*
G01X9745Y8803D01*
G01X9850Y8854D01*
G01X9954Y8854D01*
G01X10058Y8803D01*
G01X10109Y8750D01*
G01X10160Y8595D01*
G01X10160Y8128D01*
G01X10160Y8491D02*
G01X10731Y8854D01*
G01X9900Y9250D02*
G01X9850Y9250D01*
G01X9745Y9301D01*
G01X9692Y9354D01*
G01X9641Y9458D01*
G01X9641Y9664D01*
G01X9692Y9768D01*
G01X9745Y9822D01*
G01X9850Y9872D01*
G01X9954Y9872D01*
G01X10058Y9822D01*
G01X10213Y9718D01*
G01X10731Y9197D01*
G01X10731Y9926D01*
G01X7458Y68654D02*
G01X7458Y67564D01*
G01X7458Y68654D02*
G01X7821Y68654D01*
G01X7979Y68603D01*
G01X8080Y68499D01*
G01X8134Y68395D01*
G01X8184Y68237D01*
G01X8184Y67978D01*
G01X8134Y67823D01*
G01X8080Y67719D01*
G01X7979Y67615D01*
G01X7821Y67564D01*
G01X7458Y67564D01*
G01X9307Y68395D02*
G01X9256Y68499D01*
G01X9152Y68603D01*
G01X9048Y68654D01*
G01X8840Y68654D01*
G01X8736Y68603D01*
G01X8631Y68499D01*
G01X8581Y68395D01*
G01X8527Y68237D01*
G01X8527Y67978D01*
G01X8581Y67823D01*
G01X8631Y67719D01*
G01X8736Y67615D01*
G01X8840Y67564D01*
G01X9048Y67564D01*
G01X9152Y67615D01*
G01X9256Y67719D01*
G01X9307Y67823D01*
G01X9650Y68446D02*
G01X9754Y68499D01*
G01X9909Y68654D01*
G01X9909Y67564D01*
G01X52578Y63255D02*
G01X52578Y62165D01*
G01X52578Y63255D02*
G01X53304Y62165D01*
G01X53304Y63255D02*
G01X53304Y62165D01*
G01X53647Y63255D02*
G01X53647Y62165D01*
G01X53647Y63255D02*
G01X54114Y63255D01*
G01X54272Y63204D01*
G01X54322Y63153D01*
G01X54376Y63049D01*
G01X54376Y62945D01*
G01X54322Y62841D01*
G01X54272Y62787D01*
G01X54114Y62736D01*
G01X53647Y62736D01*
G01X54013Y62736D02*
G01X54376Y62165D01*
G01X54719Y63255D02*
G01X54719Y62165D01*
G01X54719Y63255D02*
G01X55394Y63255D01*
G01X54719Y62736D02*
G01X55133Y62736D01*
G01X55788Y62996D02*
G01X55788Y63049D01*
G01X55841Y63153D01*
G01X55892Y63204D01*
G01X55996Y63255D01*
G01X56205Y63255D01*
G01X56309Y63204D01*
G01X56360Y63153D01*
G01X56413Y63049D01*
G01X56413Y62945D01*
G01X56360Y62841D01*
G01X56255Y62683D01*
G01X55737Y62165D01*
G01X56464Y62165D01*
G01X57327Y63255D02*
G01X56807Y62528D01*
G01X57586Y62528D01*
G01X57327Y63255D02*
G01X57327Y62165D01*
G01X57929Y63255D02*
G01X57929Y62165D01*
G01X57929Y62165D02*
G01X58552Y62165D01*
G01X59207Y63255D02*
G01X59052Y63204D01*
G01X58948Y63049D01*
G01X58894Y62787D01*
G01X58894Y62632D01*
G01X58948Y62373D01*
G01X59052Y62216D01*
G01X59207Y62165D01*
G01X59311Y62165D01*
G01X59466Y62216D01*
G01X59570Y62373D01*
G01X59623Y62632D01*
G01X59623Y62787D01*
G01X59570Y63049D01*
G01X59466Y63204D01*
G01X59311Y63255D01*
G01X59207Y63255D01*
G01X59966Y63049D02*
G01X60071Y63100D01*
G01X60225Y63255D01*
G01X60225Y62165D01*
G54D10*
G75*
G01X29616Y42380D02*
G03X29616Y37884I0J-2248D01*
G01*
G75*
G01X35916Y37884D02*
G03X35916Y42380I0J2248D01*
G01*
G75*
G01X2514Y54634D02*
G03X2314Y54434I0J-200D01*
G01*
G75*
G01X2514Y52554D02*
G02X2314Y52754I0J200D01*
G01*
G75*
G01X5614Y54634D02*
G02X5814Y54434I0J-200D01*
G01*
G75*
G01X5614Y52554D02*
G03X5814Y52754I0J200D01*
G01*
G75*
G01X42902Y62077D02*
G03X43102Y61877I200J0D01*
G01*
G75*
G01X44982Y62077D02*
G02X44782Y61877I-200J0D01*
G01*
G75*
G01X42902Y65177D02*
G02X43102Y65377I200J0D01*
G01*
G75*
G01X44982Y65177D02*
G03X44782Y65377I-200J0D01*
G01*
G75*
G01X2514Y50443D02*
G03X2314Y50243I0J-200D01*
G01*
G75*
G01X2514Y48363D02*
G02X2314Y48563I0J200D01*
G01*
G75*
G01X5614Y50443D02*
G02X5814Y50243I0J-200D01*
G01*
G75*
G01X5614Y48363D02*
G03X5814Y48563I0J200D01*
G01*
G75*
G01X2641Y32282D02*
G03X2441Y32082I0J-200D01*
G01*
G75*
G01X2641Y30202D02*
G02X2441Y30402I0J200D01*
G01*
G75*
G01X5741Y32282D02*
G02X5941Y32082I0J-200D01*
G01*
G75*
G01X5741Y30202D02*
G03X5941Y30402I0J200D01*
G01*
G75*
G01X2641Y36473D02*
G03X2441Y36273I0J-200D01*
G01*
G75*
G01X2641Y34393D02*
G02X2441Y34593I0J200D01*
G01*
G75*
G01X5741Y36473D02*
G02X5941Y36273I0J-200D01*
G01*
G75*
G01X5741Y34393D02*
G03X5941Y34593I0J200D01*
G01*
G75*
G01X2641Y23900D02*
G03X2441Y23700I0J-200D01*
G01*
G75*
G01X2641Y21820D02*
G02X2441Y22020I0J200D01*
G01*
G75*
G01X5741Y23900D02*
G02X5941Y23700I0J-200D01*
G01*
G75*
G01X5741Y21820D02*
G03X5941Y22020I0J200D01*
G01*
G75*
G01X26567Y40666D02*
G03X26367Y40866I-200J0D01*
G01*
G75*
G01X24487Y40666D02*
G02X24687Y40866I200J0D01*
G01*
G75*
G01X26567Y37566D02*
G02X26367Y37366I-200J0D01*
G01*
G75*
G01X24487Y37566D02*
G03X24687Y37366I200J0D01*
G01*
G75*
G01X2641Y28091D02*
G03X2441Y27891I0J-200D01*
G01*
G75*
G01X2641Y26011D02*
G02X2441Y26211I0J200D01*
G01*
G75*
G01X5741Y28091D02*
G02X5941Y27891I0J-200D01*
G01*
G75*
G01X5741Y26011D02*
G03X5941Y26211I0J200D01*
G01*
G75*
G01X8993Y2133D02*
G03X9193Y1933I200J0D01*
G01*
G75*
G01X11073Y2133D02*
G02X10873Y1933I-200J0D01*
G01*
G75*
G01X8993Y5233D02*
G02X9193Y5433I200J0D01*
G01*
G75*
G01X11073Y5233D02*
G03X10873Y5433I-200J0D01*
G01*
G75*
G01X13057Y2133D02*
G03X13257Y1933I200J0D01*
G01*
G75*
G01X15137Y2133D02*
G02X14937Y1933I-200J0D01*
G01*
G75*
G01X13057Y5233D02*
G02X13257Y5433I200J0D01*
G01*
G75*
G01X15137Y5233D02*
G03X14937Y5433I-200J0D01*
G01*
G75*
G01X46125Y42698D02*
G03X45925Y42898I-200J0D01*
G01*
G75*
G01X44045Y42698D02*
G02X44245Y42898I200J0D01*
G01*
G75*
G01X46125Y39598D02*
G02X45925Y39398I-200J0D01*
G01*
G75*
G01X44045Y39598D02*
G03X44245Y39398I200J0D01*
G01*
G75*
G01X41045Y40666D02*
G03X40845Y40866I-200J0D01*
G01*
G75*
G01X38965Y40666D02*
G02X39165Y40866I200J0D01*
G01*
G75*
G01X41045Y37566D02*
G02X40845Y37366I-200J0D01*
G01*
G75*
G01X38965Y37566D02*
G03X39165Y37366I200J0D01*
G01*
G75*
G01X69977Y37973D02*
G02X69977Y39751I0J889D01*
G01*
G01X54864Y13081D02*
G01X65278Y13081D01*
G01X65278Y1270D01*
G01X54864Y1270D01*
G01X54864Y13081D01*

%LPD*%
G36*
G01X15385Y38707D02*
G01X14585Y38708D01*
G01X14985Y38408D01*
G01X15385Y38707D01*
G37*

%LPD*%
G36*
G01X12592Y14123D02*
G01X12192Y14423D01*
G01X11792Y14124D01*
G01X12592Y14123D01*
G37*

%LPD*%
G36*
G01X12591Y20800D02*
G01X11791Y20801D01*
G01X12191Y20501D01*
G01X12591Y20800D01*
G37*
M00*
M02*
