;Layer: Drill PTH
;EasyEDA v6.4.7, 2020-10-10T14:28:28+07:00
;52f6a2ab2d5a4f67a95d22fe1a878f29,10
;Gerber Generator version 0.2
M48
METRIC,LZ,000.000
;Holesize 1 = 0.701 METRIC
T01C0.701
;Holesize 2 = 0.889 METRIC
T02C0.889
;Holesize 3 = 1.000 METRIC
T03C1.000
;Holesize 4 = 1.101 METRIC
T04C1.101
;Holesize 5 = 1.200 METRIC
T05C1.200
%
G05
G90
T01
X+030315Y+040132
X+035216Y+040132
T02
X+014097Y+017526
X+040767Y+049276
X+046990Y+049149
X+019558Y+019304
X+022098Y+019304
X+024638Y+019304
X+027178Y+019304
X+029718Y+019304
X+032258Y+019304
X+034798Y+019304
X+037338Y+019304
X+019558Y+021844
X+022098Y+021844
X+024638Y+021844
X+027178Y+021844
X+029718Y+021844
X+032258Y+021844
X+034798Y+021844
X+037338Y+021844
X+037338Y+024384
X+034798Y+024384
X+032258Y+024384
X+029718Y+024384
X+027178Y+024384
X+024638Y+024384
X+022098Y+024384
X+019558Y+024384
X+067945Y+024384
X+065405Y+024384
X+062865Y+024384
X+060325Y+024384
X+057785Y+024384
X+055245Y+024384
X+052705Y+024384
X+050165Y+024384
X+037465Y+053213
X+034925Y+053213
X+032385Y+053213
X+029845Y+053213
X+027305Y+053213
X+024765Y+053213
X+022225Y+053213
X+019685Y+053213
X+044069Y+053340
X+067945Y+021844
X+065405Y+021844
X+062865Y+021844
X+060325Y+021844
X+057785Y+021844
X+055245Y+021844
X+052705Y+021844
X+050165Y+021844
X+019558Y+014605
X+019558Y+012065
X+019558Y+009525
X+019558Y+006985
X+019558Y+004445
X+045466Y+027686
X+045466Y+025146
X+042926Y+027686
X+042926Y+025146
X+050165Y+058293
X+052705Y+058293
X+055245Y+058293
X+057785Y+058293
X+060325Y+058293
X+062865Y+058293
X+065405Y+058293
X+067945Y+058293
X+050165Y+055753
X+052705Y+055753
X+055245Y+055753
X+057785Y+055753
X+060325Y+055753
X+062865Y+055753
X+065405Y+055753
X+067945Y+055753
X+019685Y+058293
X+022225Y+058293
X+024765Y+058293
X+027305Y+058293
X+029845Y+058293
X+032385Y+058293
X+034925Y+058293
X+037465Y+058293
X+067945Y+053213
X+065405Y+053213
X+062865Y+053213
X+060325Y+053213
X+057785Y+053213
X+055245Y+053213
X+052705Y+053213
X+050165Y+053213
X+067945Y+019304
X+065405Y+019304
X+062865Y+019304
X+060325Y+019304
X+057785Y+019304
X+055245Y+019304
X+052705Y+019304
X+050165Y+019304
X+019685Y+055753
X+022225Y+055753
X+024765Y+055753
X+027305Y+055753
X+029845Y+055753
X+032385Y+055753
X+034925Y+055753
X+037465Y+055753
X+032385Y+070993
X+029845Y+070993
X+027305Y+070993
X+024765Y+070993
X+022225Y+070993
X+019685Y+070993
X+027178Y+014605
X+027178Y+012065
X+027178Y+009525
X+027178Y+006985
X+027178Y+004445
X+022098Y+014605
X+022098Y+012065
X+022098Y+009525
X+022098Y+006985
X+022098Y+004445
X+047117Y+007747
X+044577Y+007747
X+042037Y+007747
X+039497Y+007747
X+036957Y+007747
X+047117Y+005207
X+044577Y+005207
X+042037Y+005207
X+039497Y+005207
X+036957Y+005207
X+024638Y+014605
X+024638Y+012065
X+024638Y+009525
X+024638Y+006985
X+024638Y+004445
X+062738Y+007620
X+062738Y+005080
X+060198Y+007620
X+060198Y+005080
X+057658Y+007620
X+057658Y+005080
T03
X+022225Y+046482
X+027305Y+046482
X+024765Y+046482
X+037465Y+046482
X+047625Y+046482
X+050165Y+046482
X+052705Y+046482
X+055245Y+046482
X+057785Y+046482
X+060325Y+046482
X+062865Y+046482
X+065405Y+046482
X+067945Y+046482
X+045085Y+046482
X+040005Y+046482
X+042545Y+046482
X+034925Y+046482
X+029845Y+046482
X+032385Y+046482
X+019685Y+046482
X+065405Y+031242
X+067945Y+031242
X+062865Y+031242
X+060325Y+031242
X+029845Y+031242
X+032385Y+031242
X+034925Y+031242
X+037465Y+031242
X+027305Y+031242
X+024765Y+031242
X+022225Y+031242
X+019685Y+031242
X+047625Y+031242
X+045085Y+031242
X+042545Y+031242
X+040005Y+031242
X+050165Y+031242
X+052705Y+031242
X+055245Y+031242
X+057785Y+031242
T04
X+065278Y+065024
X+065278Y+067564
X+029845Y+068453
X+032385Y+068453
T05
X+014275Y+061171G85X+014275Y+063671
X+008076Y+063671G85X+008076Y+061171
X+010026Y+057720G85X+012526Y+057720
X+050675Y+065530
X+050673Y+068073
X+053213Y+065533
X+053213Y+068073
X+055753Y+065533
X+055753Y+068073
X+058293Y+065533
X+058293Y+068073
M30
